<svg width="737" height="58" viewBox="0 0 737 58" fill="none" xmlns="http://www.w3.org/2000/svg">
<path d="M523.774 1.69339C524.638 1.49417 525.791 1.19534 526.367 0.996125C526.943 0.697293 528.96 0.49807 528.672 0.697293C528.384 0.896511 527.231 1.29495 526.943 1.49417C526.655 1.59378 528.096 1.89261 528.096 2.09183L528.672 2.09183L529.248 2.29105C529.825 2.58988 530.401 2.88871 530.689 2.98832C530.977 3.08793 531.842 2.78909 532.13 2.58987L532.13 2.39066L532.13 2.29105C532.13 2.19144 532.13 1.89261 532.706 1.59378C532.994 1.29495 533.282 0.597684 533.282 0.498074C533.57 0.498074 533.859 0.498074 534.147 0.597684C534.435 0.697293 535.011 0.996121 535.587 1.09573C535.876 1.19534 534.147 1.49417 534.147 1.59378C533.859 1.69339 533.859 1.89261 534.723 1.69339C535.299 1.59378 537.316 1.99222 537.604 1.89261C537.893 1.89261 537.604 1.39456 537.316 1.29495L537.316 1.19534L537.316 1.09573C537.316 0.996121 538.181 0.896512 539.333 0.896512L540.198 0.896512L540.486 0.896512C540.486 0.597684 541.062 0.398465 541.062 0.398465C541.35 0.398465 542.503 0.398465 543.367 0.398465L543.655 0.697293C542.791 0.697293 542.215 0.896516 542.503 0.996125C542.503 1.09573 543.367 1.39456 543.944 1.19534C544.52 0.996122 546.249 0.597684 546.825 0.597684C547.401 0.597684 549.418 0.597684 549.706 0.597684C549.706 0.597684 549.418 0.697294 548.842 0.697294C548.266 0.697294 546.825 0.896512 546.825 1.09573C546.825 1.29495 544.808 1.49417 544.232 1.49417C543.944 1.49417 542.791 1.69339 542.503 1.69339L542.503 1.793C542.503 1.89261 542.791 1.99222 543.079 1.99222C545.096 1.793 547.113 1.59378 549.13 1.59378L550.571 1.59378C551.147 1.29495 552.012 0.996122 552.588 0.896513C552.876 0.796903 553.741 1.19534 553.741 1.19534C554.029 1.19534 554.893 1.39456 555.181 1.39456C555.469 1.49417 556.622 1.69339 556.334 1.69339C556.046 1.793 555.181 1.89261 554.893 1.793L554.893 1.69339L554.317 1.29495C553.164 1.39456 552.012 1.39456 552.012 1.49417C551.724 1.49417 551.435 1.793 551.435 1.89261C551.435 1.99222 552.876 2.29105 553.452 2.29105C554.029 2.98832 555.181 2.58988 555.469 2.39066C556.046 1.89261 557.486 1.89261 558.351 1.69339L559.215 1.49417C559.792 1.19535 560.368 1.09573 560.368 1.29495L560.368 1.39456L560.368 1.59378C561.232 1.69339 562.673 1.99222 563.537 2.09183L563.826 2.29105C564.114 2.68949 564.978 2.68949 566.419 2.68949C566.995 2.68949 567.571 2.8887 567.86 2.8887C568.148 2.8887 568.436 2.58988 568.724 2.49027C569.3 2.49027 569.3 2.39066 568.724 2.29105C568.148 2.19144 567.571 1.89261 567.86 1.793C568.148 1.69339 571.029 2.09183 570.741 2.19144L570.453 2.29105C569.877 2.68949 570.741 2.88871 571.894 2.68949C573.046 2.58988 573.334 2.7891 573.911 2.88871L574.775 2.88871C575.639 2.88871 577.656 2.7891 578.809 2.68949L579.673 3.08793L580.538 3.18753C581.402 3.18753 582.555 3.08793 583.131 2.98832C583.707 2.88871 586.013 3.18753 586.589 3.18753C587.165 3.18753 588.318 3.18753 588.894 3.18753C589.47 3.18753 591.487 3.28715 592.064 3.08793C592.64 2.88871 594.945 2.7891 595.81 3.08793L597.25 2.98832L598.115 2.88871C599.267 2.88871 600.708 2.98832 601.861 2.98832C602.725 2.98832 605.606 2.7891 606.759 2.68949C607.912 2.58988 611.657 2.7891 612.81 2.7891L614.251 2.98832L615.691 3.08793C617.42 2.98832 619.437 2.7891 619.725 2.7891C620.014 2.7891 621.742 2.7891 622.607 2.7891C623.471 2.7891 625.776 2.68949 626.065 2.68949C626.065 2.7891 626.641 2.88871 626.929 2.7891C627.217 2.68949 628.37 2.58988 628.658 2.68949L628.946 2.7891L629.234 2.88871C629.522 2.88871 630.099 2.88871 630.387 2.7891C630.675 2.68949 631.251 2.58988 631.539 2.68949C631.827 2.7891 632.98 2.58988 632.98 2.58988C633.268 2.58988 634.421 2.49027 635.573 2.39066L636.726 2.49027C637.302 2.58988 637.879 2.58988 638.455 2.68949C639.031 2.7891 639.607 3.08793 640.76 2.7891C640.76 2.7891 641.336 2.7891 641.624 2.88871C642.777 3.18754 643.065 3.28715 644.218 2.7891L645.082 2.49028C645.658 2.88871 646.235 3.18754 646.523 3.08793C646.811 2.98832 647.675 2.7891 647.675 2.88871C647.964 2.98832 648.54 3.28715 649.116 3.28715C649.692 3.28715 650.845 2.98832 651.133 2.88871C651.421 2.7891 652.286 2.98832 652.574 2.88871C652.574 2.7891 652.862 2.7891 652.862 2.98832C652.862 3.18754 654.591 2.88871 654.591 2.7891C655.743 2.68949 655.743 3.28715 657.184 3.08793L658.049 2.98832C659.201 2.98832 660.354 2.98832 660.642 2.98832C660.93 2.98832 662.083 2.88871 662.947 2.88871C663.811 2.88871 665.828 3.08793 666.405 2.88871L666.981 2.7891L667.269 2.68949C667.845 2.68949 668.71 2.88871 669.286 2.98832C669.862 3.08793 672.744 2.7891 673.032 2.88871C673.32 2.98832 674.473 3.18754 674.761 3.08793C675.049 2.98832 676.49 3.18754 676.49 3.18754L676.778 3.08793C677.066 2.98832 677.066 2.88871 677.354 2.88871C677.931 2.88871 679.083 2.7891 679.083 3.08793L679.083 3.18754C678.219 3.28715 677.931 3.48637 678.219 3.48637C678.507 3.58598 679.659 3.58598 679.948 3.48637C680.236 3.38676 681.388 3.08793 681.388 3.38676L681.388 3.48637C681.388 3.58598 681.676 3.68559 681.676 3.68559L682.253 3.68559C682.829 3.68559 683.405 3.7852 683.117 3.98442L684.27 3.88481L684.558 3.88481C684.846 3.7852 685.422 3.7852 686.287 3.88481C686.863 4.08403 689.744 4.08403 690.321 4.08403C691.185 4.08403 693.49 4.38286 694.355 4.38286C694.931 4.38286 696.66 4.28325 696.948 4.48247C697.236 4.68169 700.118 4.88091 700.406 4.7813L702.135 5.37895C704.728 5.47856 706.745 5.57817 707.033 5.57817C707.321 5.57817 708.474 5.57817 709.338 5.57817C710.203 5.57817 713.948 5.47857 715.389 5.47857L715.677 6.07622C715.677 6.17583 716.254 6.27544 716.542 6.17583L717.406 6.07622C718.271 6.17583 719.423 6.37505 719.423 6.47467C719.711 6.57428 721.152 6.77349 721.728 6.77349C722.305 6.8731 723.745 7.07232 724.034 6.97271C724.322 6.97271 724.898 6.97271 725.186 7.17193L725.186 7.27154C725.474 7.37115 726.051 7.37115 726.339 7.27154C727.491 7.07232 728.644 7.07232 729.22 7.07232C730.949 7.07232 730.085 7.27154 730.085 7.47076C730.085 7.57037 730.949 7.76959 729.796 7.76959C729.22 7.76959 728.644 7.8692 728.068 7.96881C727.491 8.06842 727.491 8.16803 728.068 8.26764L728.644 8.36724C728.068 8.46685 727.203 8.76569 726.339 8.9649C725.762 9.16412 724.898 9.86139 725.474 9.961L726.051 9.961L726.627 9.961C727.203 9.86139 728.356 9.86139 728.932 9.961C729.508 10.0606 729.508 10.9571 729.22 11.2559C728.932 11.5548 728.356 12.5509 728.644 12.5509C728.644 12.5509 729.508 12.4512 730.085 12.252L730.949 12.5509L731.237 12.7501C730.949 12.9493 730.661 13.1485 730.373 13.3477L730.949 13.4473L731.237 13.4473C732.102 13.3477 732.678 13.3477 732.39 13.5469L732.39 13.6466L732.39 14.045C732.966 14.4434 733.542 14.9415 733.542 15.0411C733.542 15.2403 732.678 15.838 731.525 15.9376C730.373 16.1368 730.373 17.0333 731.237 16.9337L731.813 16.8341L732.39 16.7345C732.966 16.6348 734.119 16.8341 734.983 17.1329L734.695 17.4317C734.695 17.5313 734.695 17.6309 734.407 17.7306C733.83 18.0294 733.254 18.2286 732.678 18.4278C732.102 18.627 731.525 18.129 730.949 18.4278L730.949 18.5274C730.373 18.5274 730.373 18.627 731.237 18.7266L731.237 18.8263C731.237 18.9259 730.949 19.1251 730.661 19.2247C730.373 19.3243 730.085 19.3243 729.796 19.3243C728.644 19.5235 728.644 20.0216 729.22 20.0216C730.085 20.1212 730.373 20.2208 730.661 20.42L730.949 20.5196C732.102 20.5196 732.102 20.7188 730.661 20.8185C729.22 20.9181 725.762 21.5157 724.034 21.2169L722.017 21.3165C721.728 21.3165 720.864 21.1173 720.576 20.9181L720.288 20.5196C719.423 20.6192 718.847 20.9181 719.135 21.1173L719.135 21.3165C718.847 21.8145 718.559 22.3126 718.271 22.8106L718.271 22.9103C717.118 23.0099 716.542 23.2091 716.254 23.2091C715.966 23.2091 715.101 23.5079 714.813 23.5079C714.237 23.5079 712.796 23.6075 712.508 23.6075C712.22 23.6075 711.643 23.8067 711.355 23.9064C711.067 24.006 709.914 23.7071 709.914 23.6075C709.626 23.6075 708.762 23.5079 708.762 23.7071C708.762 23.9064 707.897 24.3048 707.321 24.1056C706.745 24.006 705.016 24.2052 705.016 24.3048C705.016 24.3048 705.304 24.504 704.728 24.6036L704.44 24.6036C703.575 24.504 702.423 24.1056 702.135 24.7032C701.846 24.7032 701.27 24.7032 700.694 24.6036C700.118 24.504 698.389 24.8028 697.812 24.8028C697.236 24.8028 695.795 24.8028 694.931 24.8028C694.067 24.8028 692.626 25.2013 693.202 25.3009C693.778 25.4005 694.931 25.7989 694.643 26.0978C694.355 26.3966 697.524 27.1935 697.236 27.1935C696.948 27.1935 696.66 27.4923 697.524 27.6915L697.524 27.8907L697.524 28.2892C698.389 28.2892 699.253 28.3888 699.829 28.4884L700.118 28.588L700.694 28.8868C700.406 29.1857 700.406 29.6837 700.694 29.9825L700.982 30.2814L700.982 30.381C700.982 30.4806 700.118 30.4806 699.253 30.2814C698.389 30.0821 695.795 30.381 695.795 30.4806C695.795 30.5802 696.084 30.7794 696.66 30.7794L696.948 30.7794L697.524 30.6798C698.389 30.5802 698.677 30.5802 698.677 30.6798L698.677 30.7794L698.677 30.879C698.677 30.9786 698.677 31.0782 698.965 31.0782C699.253 31.0782 700.118 30.9786 700.406 31.0782C700.982 31.0782 700.118 31.6759 699.541 31.9747L698.389 32.0743C698.101 32.0743 697.812 32.0743 697.812 32.174L698.101 32.8712C696.084 33.17 695.219 33.3693 695.507 33.4689C696.084 33.5685 697.812 33.4689 698.101 33.4689C698.389 33.4689 700.694 33.7677 702.423 33.9669L704.152 33.8673C705.016 33.8673 705.016 33.9669 705.304 34.1661L705.016 34.465C705.592 34.2658 706.457 34.1661 707.321 34.2658C708.186 34.3654 710.491 34.6642 710.779 34.7638L710.203 35.0626C710.491 35.3615 711.067 35.5607 711.355 35.6603C711.643 35.7599 712.22 35.7599 712.22 35.7599L712.508 35.6603L712.796 35.5607C713.084 35.4611 713.948 35.3615 714.525 35.3615C715.101 35.2619 717.118 35.1622 717.406 35.2618C717.694 35.3615 718.271 35.7599 717.983 35.8595C717.694 36.0587 715.389 35.7599 714.525 35.7599L714.525 35.9591C714.237 36.1583 714.813 36.5568 715.101 36.5568L719.135 36.6564C718.559 37.4533 718.559 38.1505 719.135 38.1505C719.711 38.1505 720.864 37.8517 720.864 37.8517C721.152 37.8517 721.44 38.0509 721.44 38.0509C721.44 38.0509 721.728 38.2501 722.017 38.4494C722.305 38.6486 721.44 39.1466 721.152 39.3458L721.152 39.4455L721.152 39.5451C721.152 39.6447 721.728 39.7443 722.017 39.7443L722.305 39.7443L722.593 39.7443C722.881 39.7443 723.169 39.7443 723.457 39.8439L722.881 40.0431C722.017 40.3419 722.017 40.5412 723.169 40.4416L723.745 40.4416L724.898 40.4416C726.339 40.4416 727.203 40.5412 727.491 40.7404L727.491 40.84L727.203 41.8361C728.644 42.2345 730.085 42.633 730.373 42.7326L730.373 42.8322L730.661 43.0314C730.661 43.3302 730.949 43.7287 731.237 44.0275L731.813 44.1271C733.83 44.0275 733.83 44.3263 733.542 44.7248L733.542 44.8244C733.542 45.1232 734.407 45.2228 735.559 45.0236L734.983 45.422C734.407 45.7209 735.559 45.7209 735.847 45.8205C735.847 45.8205 736.712 45.422 737 45.8205L737 45.9201C736.424 46.0197 735.847 46.1193 735.847 46.1193C735.847 46.1193 736.136 46.5177 736.712 46.8166L736.424 47.215C736.424 47.3146 736.136 47.4142 736.136 47.5138L736.136 47.6134C736.424 47.7131 736.424 47.8127 736.136 47.8127C735.847 47.8127 734.407 47.8127 734.119 48.0119C733.542 48.2111 734.407 48.7092 734.119 48.8088C732.966 48.5099 732.102 48.5099 731.237 48.9084L730.373 49.2072C729.22 48.9084 728.356 48.9084 728.356 49.008C728.356 49.1076 726.915 49.506 725.762 49.7053L724.898 49.2072L724.322 48.9084C722.881 49.1076 722.017 49.4064 722.305 49.4064C722.593 49.4064 723.169 49.6056 723.169 49.6056C722.593 49.6056 722.017 49.6056 721.44 49.506L721.152 49.506C720.864 49.506 720.576 49.506 720.288 49.6056C720 49.7052 719.135 49.6056 719.135 49.7052C719.135 49.8049 718.559 50.0041 718.271 49.8049C717.694 49.9045 716.542 49.7053 715.965 50.0041L715.389 50.2033L715.101 50.3029C714.525 50.3029 713.66 50.3029 713.084 50.2033C712.508 50.1037 709.914 50.3029 709.626 50.2033C709.05 50.1037 707.609 49.9045 707.321 50.2033L706.745 50.4025L706.169 50.6017C705.304 50.6017 704.152 50.6017 703.863 50.5021C703.287 50.4025 702.423 50.801 701.846 50.801C701.27 50.801 699.829 50.7013 699.541 50.6017C699.253 50.5021 698.389 50.5021 698.101 50.6017C697.812 50.801 696.948 51.1994 696.372 51.0998C695.795 51.0002 694.643 51.0998 694.067 51.1994C693.778 51.299 692.338 51.0998 692.338 51.0998L692.338 51.1994L692.338 51.3986C691.761 51.3986 690.609 51.1994 689.456 51.0998L689.456 51.5978C689.168 51.5978 688.016 51.6974 687.151 51.7971C685.999 51.8967 682.253 51.6974 681.388 51.6974L680.812 51.5978C679.371 51.5978 679.083 51.299 679.083 51.6974L678.219 51.7971C677.354 51.3986 675.913 51.6974 675.913 51.7971C675.049 52.0959 673.896 51.6974 673.32 51.9963L673.032 52.0959C671.591 51.9963 670.439 51.7971 670.151 51.7971C669.862 51.7971 668.998 51.9963 668.134 52.1955C667.269 52.3947 664.676 51.9963 664.676 52.0959L664.676 52.5939C663.523 52.4943 661.506 52.4943 660.642 52.6935L659.777 52.2951L658.913 52.1955C658.049 52.2951 656.896 52.4943 656.32 52.5939L655.743 52.5939L655.455 52.5939C655.167 52.5939 654.591 52.5939 654.015 52.5939C653.438 52.5939 651.133 52.5939 650.557 52.5939C649.981 52.5939 648.252 52.7931 648.252 52.6935C647.964 52.5939 647.387 52.4943 647.387 52.5939L647.099 52.6935L646.811 52.7931C646.523 52.8928 646.523 52.8928 646.235 52.7931C646.235 52.6935 645.947 52.5939 645.658 52.4943L645.37 52.4943L644.506 52.6935C643.353 52.7931 641.913 52.8928 641.624 52.8928L641.624 52.9924L640.472 53.3908C639.607 52.9924 638.743 52.7931 638.455 52.8928C638.167 52.9924 637.59 53.1916 637.302 53.1916C637.014 53.092 636.726 53.3908 636.438 53.7892L634.709 53.2912L634.421 53.1916C633.556 53.2912 632.404 53.2912 631.827 53.2912C631.251 53.2912 630.099 53.1916 630.099 53.2912C630.099 53.3908 628.37 53.3908 628.082 53.3908C627.793 53.2912 627.217 53.4904 627.505 53.8889L625.776 53.3908C625.488 53.3908 624.624 53.4904 624.048 53.59L623.759 53.59C623.471 53.6896 622.031 53.7892 620.878 53.8889C619.437 53.9885 616.268 53.4904 615.98 53.4904C615.691 53.4904 613.963 53.59 612.81 53.6896C611.657 53.7892 607.623 53.6896 606.759 53.6896L606.471 53.7892L605.318 53.8888C604.454 53.7892 603.589 53.6896 603.013 53.59L602.437 53.59L601.572 53.59C600.708 53.6896 599.555 53.8888 598.979 53.8888C598.403 53.8888 596.098 53.9885 594.945 53.9885L593.793 53.9885L593.504 53.9885C593.216 54.0881 592.64 53.9885 592.64 53.8888C592.64 53.7892 591.199 53.8888 590.911 53.8888C590.623 53.9885 589.758 54.0881 589.47 54.0881C589.182 53.9885 588.03 53.8888 587.741 53.8888C587.165 53.9885 585.436 54.1877 584.572 54.1877L583.996 54.1877C583.419 53.8888 582.555 54.4865 581.979 54.0881L581.69 53.8888C580.538 54.0881 579.385 54.0881 579.097 54.0881C578.809 53.9885 577.945 53.8888 577.656 53.8888C577.656 53.9885 577.08 54.0881 577.08 54.0881C576.792 54.0881 576.216 54.0881 575.928 54.1877C575.639 54.2873 573.334 54.2873 571.605 54.3869L569.877 54.1877C568.436 54.0881 566.707 53.9885 564.978 54.3869L564.114 54.5861C562.673 54.4865 561.232 54.3869 561.232 54.2873C560.944 54.1877 560.08 54.1877 559.792 54.3869C559.215 54.5861 557.198 54.1877 557.198 54.2873C557.198 54.3869 556.622 54.5861 556.334 54.3869C556.334 54.2873 555.758 54.0881 555.469 54.2873C555.181 54.4865 552.876 54.1877 551.723 54.2873L550.571 54.1877L549.418 54.2873C547.689 54.4865 545.961 54.5861 545.672 54.5861C545.672 54.4865 545.096 54.3869 544.808 54.4865C544.52 54.5861 543.944 54.7853 543.655 54.7853L542.503 54.4865C541.062 54.4865 539.045 54.5861 538.181 54.4865C537.316 54.4865 534.147 54.5861 533.57 54.3869L532.706 54.6857C532.706 54.7853 531.553 54.5861 530.977 54.5861L529.248 54.5861C527.231 54.5861 524.35 54.6857 523.197 54.7853L522.045 54.3869L521.757 54.2873C521.18 54.2873 520.028 54.3869 519.451 54.3869C518.875 54.3869 517.434 54.2873 517.434 54.3869C517.434 54.4865 515.417 54.4865 514.841 54.1877L513.688 54.4865L513.4 54.5861C512.536 54.4865 511.383 54.4865 510.807 54.4865C510.519 54.4865 508.79 54.3869 508.214 54.3869L507.637 54.3869C507.349 54.3869 506.773 54.3869 506.485 54.3869C506.197 54.3869 505.62 54.4865 505.332 54.4865L505.044 54.4865C504.756 54.4865 504.18 54.4865 503.603 54.4865C503.027 54.5861 501.875 54.3869 501.01 54.1877L501.01 54.5861C500.722 54.5861 498.993 54.4865 497.841 54.2873L496.688 54.2873L495.824 54.2873C494.671 54.4865 493.518 54.5861 493.23 54.6857C492.942 54.6857 492.078 54.5861 491.501 54.2873L490.349 54.3869C489.773 54.4865 488.62 54.4865 488.332 54.3869C487.179 54.2873 486.891 54.8849 486.027 54.7853L485.162 54.6857C484.01 54.6857 482.569 54.5861 481.993 54.4865L481.705 54.5861L480.552 54.8849C479.111 54.6857 477.959 54.5861 477.671 54.6857C477.382 54.7853 476.518 54.8849 476.23 54.7853C475.942 54.6857 475.077 54.3869 475.077 54.3869C475.077 54.3869 474.213 54.4865 473.637 54.5861C473.06 54.6857 469.891 54.6857 469.026 54.6857C468.162 54.6857 465.568 54.6857 464.704 54.5861C463.84 54.4865 462.111 54.7853 461.534 54.6857L459.806 55.383C457.212 55.1838 454.907 54.8849 454.331 54.8849C453.755 54.8849 452.602 54.9845 452.602 54.7853C452.602 54.5861 450.297 54.9845 449.721 55.0842C449.144 55.1838 447.992 55.0842 447.415 55.0842C447.127 55.0842 445.975 55.1838 445.687 55.0842C445.687 54.9845 445.11 54.8849 444.822 54.8849C444.534 54.9845 443.381 55.1838 442.229 55.1838L441.364 55.0842L438.771 54.7853L438.195 54.8849C437.33 55.0842 436.754 55.0842 436.466 55.0842C436.466 54.9845 435.313 54.7853 434.737 54.6857L433.296 55.0842L433.008 55.0842C432.72 55.0842 432.144 54.9845 431.856 54.9845C431.568 54.8849 429.262 54.9845 427.822 55.0842L427.245 55.2834C426.669 55.1838 426.093 54.8849 426.381 54.5861L424.652 54.8849L423.499 55.0842C423.499 54.7853 423.499 54.6857 423.499 54.8849C423.499 55.0842 421.482 54.7853 421.482 54.7853C421.482 54.7853 420.618 54.8849 419.754 54.8849C419.177 54.8849 416.584 54.6857 415.72 54.5861C414.855 54.4865 413.414 54.7853 413.126 54.7853C412.838 54.6857 412.262 54.4865 411.974 54.4865C411.974 54.4865 411.686 54.5861 411.397 54.6857C411.109 54.7853 409.669 54.8849 409.092 54.7853L408.516 54.7853C408.228 54.7853 407.652 54.8849 407.652 54.8849L406.787 54.6857C405.923 54.7853 404.194 54.7853 403.041 54.6857L401.889 54.5861L401.601 54.5861C401.024 54.5861 400.448 54.6857 400.16 54.6857C399.872 54.7853 398.719 54.7853 398.143 54.8849C397.855 54.9845 395.261 54.7853 394.109 54.7853L392.956 54.7853L392.092 54.7853C390.939 54.6857 390.075 54.6857 389.787 54.6857C389.498 54.7853 388.346 54.8849 387.482 54.8849L386.905 54.7853C386.329 54.6857 385.753 54.3869 385.753 54.8849C385.753 54.8849 385.176 54.8849 384.888 54.8849C383.447 54.8849 381.719 54.6857 380.278 54.7853L379.125 54.8849C378.261 54.7853 377.396 54.6857 377.108 54.6857C376.82 54.6857 375.668 54.7853 375.091 54.7853C374.515 54.8849 370.769 54.7853 369.617 54.6857C368.464 54.5861 365.583 55.0842 365.006 55.0842C364.43 55.0842 361.837 55.1838 360.972 55.2834C360.108 55.383 358.091 54.8849 358.091 54.8849C357.803 54.8849 356.65 55.1838 356.074 54.9845L355.497 54.9845C354.921 54.9845 354.057 55.1838 353.48 55.0842L352.328 54.9845C351.752 55.1838 350.887 55.2834 350.599 55.2834L350.311 55.1838L349.735 55.0842C349.158 54.9845 348.582 54.8849 348.294 54.9845C348.006 55.0842 347.429 55.1838 347.141 55.0842C347.141 54.9845 345.412 54.9845 345.124 55.0842C344.836 55.1838 343.684 55.2834 343.395 55.1838C343.107 55.0842 342.243 54.7853 342.243 54.7853C341.378 55.2834 340.226 54.8849 339.073 54.8849L338.497 54.8849C337.633 54.9845 337.056 54.9845 336.48 54.9845C336.192 54.9845 335.327 54.9845 334.751 54.8849C334.175 54.7853 331.582 54.9845 330.717 54.9845L329.565 55.0842C328.988 55.0842 328.124 54.8849 327.548 54.9845L326.395 55.0842C325.242 54.9845 323.802 54.9845 322.937 54.8849L322.073 54.8849L320.632 54.9845C318.903 54.9845 317.462 55.0841 317.174 55.0841C316.886 55.0841 316.022 54.8849 315.734 54.7853C315.445 54.6857 313.428 54.8849 313.14 54.7853C312.852 54.6857 311.988 54.5861 311.7 54.5861C311.7 54.6857 312.276 54.9845 312.276 54.9845L311.411 55.0841C311.123 54.8849 310.835 54.6857 310.547 54.5861C310.259 54.5861 309.683 54.6857 309.394 54.6857C309.106 54.7853 308.242 54.8849 307.954 54.7853C307.666 54.6857 306.801 54.7853 306.801 55.0841L305.36 54.8849C305.649 54.6857 305.072 54.5861 303.92 54.6857C303.055 54.7853 300.462 54.3869 300.462 54.3869L300.462 54.4865L300.462 54.8849C299.598 54.7853 298.733 54.6857 298.445 54.5861C298.157 54.4865 297.581 54.3869 297.292 54.4865C297.292 54.5861 296.428 54.7853 295.852 54.6857C295.275 54.5861 292.682 54.7853 292.106 54.7853C291.53 54.7853 289.513 54.4865 289.513 54.3869C289.513 54.2873 287.496 54.4865 287.207 54.5861C286.919 54.6857 285.479 54.7853 285.19 54.3869L283.75 54.4865C282.309 54.5861 284.614 54.8849 283.462 54.8849L282.309 54.8849C281.156 54.8849 278.275 54.8849 275.97 54.8849L273.953 54.8849C272.8 54.8849 271.936 54.8849 270.783 54.8849L269.919 54.8849C269.054 54.7853 267.614 54.9845 266.749 55.1838L265.885 54.7853L265.308 54.5861C265.308 54.7853 264.732 55.0841 264.156 55.1838L263.58 54.9845L263.003 54.6857C262.139 54.7853 260.986 54.8849 260.122 54.8849C259.546 54.8849 257.24 55.0841 256.664 55.1838C256.088 55.2834 254.071 54.9845 253.495 54.9845C252.918 54.9845 250.901 54.8849 250.325 54.8849C250.037 54.9845 248.596 55.0841 247.732 55.1838L247.155 55.2834L245.715 55.4826C245.138 55.1838 244.562 55.0841 244.562 55.1838C244.562 55.2834 243.698 55.5822 242.833 55.4826C241.969 55.383 239.376 55.1838 238.799 55.1838C237.935 55.1838 235.341 55.5822 233.901 55.5822L232.748 55.5822C231.596 55.5822 230.443 55.6818 229.002 55.5822L228.138 55.5822C227.562 55.6818 226.409 55.7814 225.545 55.6818L225.256 55.7814C224.104 55.9806 223.816 55.881 223.528 55.5822C222.951 55.5822 221.222 55.7814 220.07 56.0802L218.341 55.6818L218.053 55.6818C217.765 55.6818 217.765 55.7814 217.765 55.881C217.765 56.0802 215.46 55.881 214.883 55.7814C214.307 55.6818 212.29 55.7814 211.714 55.7814C211.137 55.7814 209.409 55.9806 208.832 55.9806C208.256 55.9806 206.527 56.1799 205.663 56.0802C204.51 56.0802 201.629 56.0802 201.052 56.0802C200.764 55.9806 199.612 55.7814 199.612 55.881C199.612 55.9806 199.035 56.0802 198.747 55.881L198.459 55.881L197.883 55.7814C197.307 55.7814 195.578 55.881 194.425 55.881L193.849 55.9806L192.984 56.1798C192.408 56.0802 191.544 55.9806 191.255 55.9806C190.967 55.9806 190.103 56.0802 189.815 56.1798C189.527 56.1798 187.798 56.0802 186.933 55.9806C186.069 55.881 183.476 56.1798 183.187 56.1798C182.899 56.1798 181.747 55.7814 181.747 55.881C181.747 55.9806 180.882 56.2795 180.018 56.2795L179.442 56.2795L178.577 56.2795C177.713 56.1798 176.272 56.0802 175.408 56.0802C174.831 56.0802 172.526 56.3791 171.95 56.3791C171.374 56.3791 169.933 56.2795 169.933 56.3791C169.933 56.4787 169.357 56.7775 169.357 56.7775C168.492 56.4787 167.628 56.1798 166.187 56.5783L165.611 56.6779C164.746 56.5783 163.594 56.5783 163.306 56.5783C163.017 56.5783 161.577 56.4787 161.289 56.4787L161 56.4787L160.136 56.5783C158.983 56.6779 157.543 56.6779 156.678 56.6779L155.814 56.6779L155.237 56.6779C154.373 56.8771 153.509 56.9767 153.221 56.8771C152.932 56.7775 152.068 56.5783 151.78 56.6779C151.492 56.7775 149.763 56.9767 149.475 56.8771C149.186 56.7775 147.746 56.5783 146.305 56.5783L145.441 56.4787L144.576 56.3791C144 56.4787 142.847 56.5783 141.983 56.5783L141.407 56.6779L141.118 56.6779C140.542 56.6779 139.101 56.7775 137.661 56.8771L136.22 56.5783L135.356 56.3791C133.915 56.3791 132.762 56.5783 132.762 56.7775C132.762 56.9767 131.033 56.8771 130.457 56.7775C130.169 56.6779 128.44 56.6779 127.864 56.6779C127.288 56.6779 125.847 56.8771 125.847 56.8771C125.847 56.8771 125.271 56.7775 124.982 56.6779C124.694 56.5783 122.389 56.4787 122.677 56.5783C122.965 56.6779 122.965 56.7775 121.813 56.6779L120.66 56.9767C120.084 57.0763 118.643 56.9767 117.779 56.9767L116.914 56.9767C116.338 56.7775 115.762 56.6779 115.474 56.6779C115.185 56.6779 113.745 56.6779 112.304 56.5783L111.44 56.9767L111.151 57.0763C109.711 56.8771 108.846 56.8771 108.846 56.9767C109.135 57.0763 109.134 57.3752 109.134 57.3752C109.134 57.3752 107.982 57.4748 107.117 57.4748C106.253 57.4748 103.66 57.2756 103.372 57.2756L103.083 57.2756L102.219 57.1759C101.066 57.1759 99.9139 57.1759 99.3376 57.0763C98.7613 56.9767 97.0325 57.4748 95.8799 57.7736L94.7273 57.674L93.2866 57.4748C92.4221 57.674 91.8459 57.8732 91.5577 57.8732C91.5577 57.8732 90.9814 57.8732 90.6933 57.9728C90.4052 58.0724 88.9644 57.8732 88.3881 57.7736C88.1 57.674 86.3711 57.5744 86.6592 57.7736C86.9474 57.9728 85.2186 57.7736 84.9304 57.8732C84.6423 57.8732 83.2015 57.8732 82.9134 57.7736C82.3371 57.674 80.6083 57.674 80.6083 57.674C80.6083 57.7736 79.1675 57.8732 76.5742 57.8732L75.7098 57.674L73.981 57.2755C73.6928 57.674 73.1165 57.7736 72.2521 57.5744L70.8113 57.7736C69.0825 57.9728 67.0655 57.8732 65.3366 57.5744C64.7603 57.4748 63.6077 57.2755 62.4552 57.4748C61.8789 57.5744 60.4382 57.3752 59.5737 57.1759C58.9974 57.0763 60.7263 56.9767 59.5737 56.8771C59.2856 56.8771 58.7094 57.0763 58.4212 56.9767C57.8449 56.9767 56.6923 56.8771 56.6923 56.7775L56.116 56.3791C54.6753 56.2795 52.9464 56.0802 52.082 55.9806C51.2175 55.881 48.3361 55.7814 48.048 55.7814C47.4717 55.7814 46.031 55.6818 45.4547 55.6818C45.1666 55.6818 44.3021 55.7814 44.3021 55.5822C44.3021 55.383 42.5732 55.6818 42.2851 55.6818C41.9969 55.6818 40.5563 55.6818 39.6918 55.6818C38.5392 55.6818 35.9459 55.2834 35.6578 55.2834C35.3696 55.2834 34.5052 55.2834 34.5052 55.1837C34.5052 55.0841 33.6408 54.7853 32.4882 54.8849C31.3356 54.9845 28.166 54.5861 27.0135 54.4865L26.7253 53.9884C26.4372 53.7892 24.7083 53.6896 24.4202 53.2912L24.132 53.0919C22.9794 52.8927 21.8269 52.7931 21.5388 52.7931C21.2506 52.7931 20.9625 52.5939 21.2506 52.3947L20.098 52.2951C20.3862 52.0958 20.6743 51.6974 20.6743 51.4982L20.6743 51.299L20.3862 50.9005C20.098 50.4025 19.5217 50.004 19.2336 50.004L18.9454 50.004L18.6573 50.004C18.3692 50.004 18.0811 50.004 18.0811 49.9044C18.0811 49.8048 18.6573 49.7052 19.2336 49.6056L19.8099 49.506C19.8099 49.506 19.8099 49.4064 19.8099 49.3068C19.8099 49.3068 19.5217 49.3068 19.2336 49.3068L18.9454 49.4064L18.3691 49.4064C17.7928 49.4064 17.2166 49.4064 17.2166 49.3068C17.2166 49.2072 16.6403 48.9083 16.064 48.7091L15.4877 48.5099L15.1996 48.4103C15.1996 48.1115 15.7759 48.0118 16.6403 48.1115C17.5048 48.2111 19.5217 48.1115 18.9454 47.6134C18.081 47.0158 18.0811 45.5216 18.6573 45.5216C19.5217 45.422 21.2506 45.2228 20.9625 45.2228C20.6743 45.2228 19.8099 45.0236 19.2336 44.8243L18.9454 44.6251C18.081 44.1271 17.7928 44.9239 16.9284 44.6251L16.6403 44.5255C15.7759 44.4259 15.1996 44.2267 15.4877 44.0275C15.7759 43.8282 14.9114 43.0314 14.6233 42.6329L15.1996 42.2345C15.7759 41.836 14.6233 41.1388 13.1826 41.1388L12.03 41.1388C10.5893 41.0392 10.013 40.9396 10.5893 40.9396C11.1656 40.9396 13.1826 40.7403 13.1826 40.6407C13.1826 40.5411 12.6063 40.0431 11.7418 40.1427L10.8774 40.1427L10.3011 40.1427C9.72486 40.1427 9.14856 40.1427 8.57227 40.0431C7.99597 40.0431 5.69086 40.0431 4.82642 40.0431C3.67383 40.0431 2.52124 39.2462 2.52124 39.1466L3.09754 39.1466C4.25012 39.2462 4.82636 38.9474 4.53827 38.6485C4.25012 38.4493 3.96198 38.2501 3.38568 38.1505L2.2331 37.9513C2.2331 37.5528 1.94495 37.3536 1.6568 37.4532L1.36872 37.4532C1.08057 37.4532 0.504214 37.4532 0.216067 37.3536C-0.0720795 37.254 -0.0720795 37.1544 0.216067 37.0548C0.792361 36.8556 1.36866 36.6563 2.52124 36.756C2.80939 36.756 3.09754 36.6563 3.09754 36.5567C3.09754 36.4571 2.80939 36.3575 2.52124 36.3575L1.6568 36.2579C0.792362 36.1583 0.792362 35.9591 1.6568 35.7599L2.52124 35.7599L3.38568 35.7599C4.53827 35.9591 5.40271 35.8595 5.40271 35.5606L5.69086 35.3614L5.97895 35.0626C6.84339 34.963 8.28412 34.8634 8.86042 34.8634C9.43671 34.8634 9.43671 34.2657 8.86042 33.8673C8.57227 33.5684 7.70783 32.4727 8.28412 32.3731C8.86042 32.2735 8.28412 31.6759 7.99598 31.5763C7.70789 31.4766 7.13153 31.0782 7.41968 31.0782L7.99598 30.9786C8.57227 30.879 9.14856 31.2774 9.72486 30.9786C10.3012 30.9786 11.1655 31.0782 11.7418 31.1778C12.3181 31.2774 14.9114 31.0782 15.7759 31.0782C16.9285 30.9786 20.098 31.2774 20.9625 31.4766C21.8269 31.5763 24.9965 31.4766 25.5728 31.5763C26.1491 31.5763 27.8779 31.8751 28.1661 31.7755C28.4542 31.6759 28.7424 31.2774 28.7424 31.0782C28.7424 30.879 26.7253 30.7794 26.1491 30.7794L25.8609 30.6798C25.2846 30.5802 25.8609 30.1817 24.4202 30.2813L24.132 30.2813C23.8439 30.0821 22.9795 29.9825 22.4032 30.1817L22.4032 29.6837L22.4032 29.5841C21.5388 29.4845 20.3862 29.4845 19.5217 29.4845L19.2336 29.1856L19.2336 28.9864C18.9454 28.6876 19.2336 28.588 19.5217 28.6876C19.8099 28.7872 21.5388 28.7872 21.8268 28.7872C22.115 28.6876 23.2676 28.588 23.8439 28.7872C24.4202 28.8868 26.1491 29.3848 26.1491 29.2852C25.8609 28.9864 24.9965 28.6876 24.9965 28.3887L25.2846 28.0899C26.4372 27.6915 27.0135 27.3927 26.4372 27.293C26.1491 27.1934 24.7083 27.1934 24.132 27.3927L23.8439 27.5919L23.5557 27.6915C23.5557 27.8907 23.2676 27.9903 23.2676 27.9903L22.4032 27.6915C21.5388 27.8907 20.3862 27.9903 20.098 27.8907C19.8099 27.8907 19.8099 27.5919 20.9625 27.293L20.3862 26.8946L20.098 26.795C19.2336 26.8946 18.3692 26.6954 18.0811 26.2969C17.7929 25.9981 17.2166 25.5997 17.2166 25.5997C17.5048 25.5001 18.3691 25.5001 18.9454 25.6993L19.5217 25.7989C19.8099 25.7989 20.3862 25.6993 20.3862 25.5997C20.6743 25.5001 20.6743 25.2012 20.3862 25.1016C19.8099 25.1016 18.3692 24.9024 18.6573 24.8028C19.2336 24.7032 20.3862 24.3048 20.098 24.2051C19.8099 24.1055 19.2336 23.8067 18.9454 23.9063L18.6573 23.9063C17.7929 24.0059 16.9284 23.7071 16.064 23.209L15.7759 23.0098C16.3522 22.8106 16.6403 22.6114 16.9284 22.5118C17.2166 22.5118 17.2166 22.3126 16.6403 22.213L16.3522 22.213C15.1996 22.213 14.9114 22.1133 15.4877 21.8145C15.4877 21.7149 15.7759 21.6153 15.7759 21.6153L15.1996 21.5157C15.4877 21.3165 16.064 21.2169 16.6403 21.3165L16.9284 21.5157L16.9284 21.6153C18.3691 21.6153 18.3691 21.5157 16.9284 21.3165L17.5047 20.918L17.7929 20.7188C18.081 20.42 18.081 20.2208 17.7929 20.1211C17.5048 20.0215 16.9285 19.6231 17.2166 19.4239C17.5048 19.2247 19.5217 19.0254 19.5217 18.9258L19.2336 18.8262L18.9454 18.627C18.6573 18.3282 18.6573 18.2286 18.9454 18.3282C19.2336 18.4278 20.6743 18.5274 20.9625 18.4278C21.2506 18.3282 22.6913 18.4278 23.2676 18.4278C23.8439 18.4278 24.9965 18.3282 24.7083 18.3282C24.4202 18.2286 23.5557 18.0293 23.2676 17.9297C22.9794 17.8301 21.5388 18.0293 21.5388 18.0293C21.5388 18.0293 21.2506 17.9297 21.2506 17.7305C21.2506 17.5313 19.2336 17.7305 18.9454 17.7305C18.6573 17.7305 18.0811 17.6309 18.6573 17.5313C19.2336 17.4317 20.9625 17.2325 21.2506 17.3321C21.2506 17.4317 22.1151 17.5313 22.4032 17.5313C22.6914 17.5313 23.5558 17.0332 23.8439 17.0332C24.1321 17.0332 25.2846 16.834 25.5728 16.5352L25.2846 16.2364C24.9965 15.9375 24.4202 15.8379 23.5557 15.7383L23.2676 15.7383C22.9794 15.6387 22.9795 15.4395 23.5557 15.3399C24.132 15.2403 25.5728 14.8418 25.8609 14.7422C26.1491 14.6426 26.1491 14.3438 26.1491 14.3438C26.4372 14.3438 26.7253 14.1446 26.7253 14.1446C26.7253 14.1446 26.7253 13.9453 26.1491 13.8457C25.8609 13.7461 24.9965 13.2481 24.9965 12.9493L25.5728 12.75C26.7253 12.3516 26.4372 12.0528 24.7083 11.8535L23.2676 11.6543C24.132 11.3555 24.9965 10.9571 25.5728 10.7578C25.8609 10.5586 27.0135 10.3594 26.1491 10.3594L26.1491 9.96096L26.1491 9.76175C26.1491 9.56253 25.8609 9.16409 25.8609 8.96487L25.2846 8.86526L24.7083 8.66603C24.9965 8.46682 25.2846 8.06838 25.5728 7.86916L24.9965 7.66994L23.5557 7.07228C24.7083 6.77345 25.8609 6.57423 25.8609 6.57423C25.8609 6.57423 24.9965 5.97658 23.5557 5.37892L22.4032 4.78126L22.1151 4.58204C22.6914 4.68165 23.2676 4.68165 23.5557 4.68165C23.5557 4.68165 24.132 4.68165 24.7083 4.58204C24.9965 4.48243 26.4372 4.28321 26.7253 4.28321C27.0135 4.28321 28.4542 4.1836 29.0305 4.08399L29.6068 3.98439L30.4712 3.88477C31.3356 3.88477 33.6408 3.78516 35.3697 3.68556C37.0985 3.48634 43.1495 3.38673 44.3021 3.28712L45.1666 3.28712L46.031 3.28712C47.1835 3.18751 49.4887 3.0879 51.7939 3.0879L53.8109 3.0879L54.6753 3.0879C55.5397 2.98829 56.9804 2.68946 57.8449 2.49024L58.7093 2.88868C58.7093 2.98829 60.4382 2.78907 60.4382 2.78907C61.0145 3.18751 61.8789 2.49024 62.4552 2.88868L62.7434 2.98829C63.8959 2.78907 65.0485 2.68946 65.6248 2.68946L66.4892 2.49024C67.6417 2.49024 69.0825 2.49024 69.6588 2.39063C70.2351 2.29102 72.2521 2.49024 72.5402 2.49024C73.1165 2.49024 75.4216 2.39063 76.5742 2.39063C77.7268 2.39063 81.1846 2.0918 81.4727 2.19141C81.7608 2.29102 83.7778 1.99219 84.9304 1.89259L85.7949 1.99219L86.9474 2.0918C88.3881 1.99219 89.8289 1.9922 90.6933 1.89259C91.5577 1.89259 93.2866 1.69337 93.2866 1.79298C93.2866 1.89259 94.7273 1.79298 95.5917 1.59376C96.4562 1.39454 99.3376 1.69337 99.9139 1.59376L100.202 1.59376L101.355 1.79298C102.219 1.59376 103.948 1.49415 105.1 1.59376L105.965 1.49415L106.829 1.39454C107.694 1.49415 109.423 1.59376 110.575 1.49415L111.728 1.49415L112.592 1.49415C113.745 1.39454 115.186 1.39454 116.05 1.59376L117.203 1.39454L118.067 1.29493C119.22 1.29493 121.525 1.29493 122.965 1.19532L124.694 1.29493L125.847 1.39454C127.288 1.29493 128.728 1.09571 129.305 1.09571C129.881 1.09571 131.322 1.19532 131.61 1.19532C131.898 1.09571 133.627 1.19532 134.491 1.19532C135.356 1.19532 137.949 0.9961 138.237 1.09571C138.237 1.19532 138.525 1.19532 138.525 0.996104C138.525 0.796881 140.542 1.19532 140.83 1.19532C141.118 1.19532 143.136 1.19532 144 1.09571C144.864 1.09571 147.17 1.19532 147.746 1.09571C148.322 1.09571 150.627 1.19532 151.492 1.19532C152.356 1.19532 155.237 1.19532 156.102 1.19532C156.966 1.29493 159.271 0.896492 159.56 0.896492C159.848 0.896492 161.289 0.996105 161.577 0.996105C162.153 0.996105 163.306 0.996105 164.458 0.996105C165.611 0.996105 168.492 1.09571 168.78 1.09571C169.068 1.09571 169.933 0.996102 170.221 1.09571C170.509 1.19532 172.814 1.09571 173.679 1.09571C174.543 1.09571 177.425 0.996102 178.577 0.796883L180.018 1.09571L180.882 1.29493C182.611 1.29493 184.916 1.19532 186.357 1.09571L187.798 1.29493L188.086 1.29493C188.662 1.09571 189.815 0.996103 190.679 1.19532C191.544 1.39454 195.001 1.09572 196.73 0.996107C198.459 0.896498 202.781 1.29494 203.069 1.29494C203.358 1.29494 204.798 1.19532 206.527 1.19532L207.968 1.39454L208.832 1.49415C209.409 1.19533 210.273 1.09571 210.849 1.19532C211.426 1.29493 213.154 1.49415 213.731 1.39454C214.019 1.29493 215.748 0.996104 216.036 1.09571C216.324 1.19532 218.053 1.39454 219.494 1.39454L220.358 1.29494C221.511 1.19533 222.375 1.19533 223.239 1.29494L224.104 1.49416C224.968 1.39455 225.833 1.29494 226.121 1.29494C226.409 1.39455 228.138 1.49416 228.426 1.49416C228.714 1.49416 230.443 1.39455 230.731 1.29494C231.307 1.19533 233.036 1.29494 233.325 1.29494C233.901 1.29494 235.63 1.29494 236.206 1.29494C236.782 1.29494 238.223 1.39455 238.223 1.49416C238.223 1.59377 238.511 1.89259 238.799 1.89259C239.087 1.89259 239.664 1.79298 239.664 1.89259C239.664 1.9922 240.816 2.09181 241.104 1.9922L241.393 1.79298C241.681 1.69338 242.545 1.59377 243.121 1.49416C244.85 1.19533 244.85 1.19532 246.579 1.59377L246.867 1.69337C247.155 1.79298 248.02 1.69338 248.308 1.59377C248.596 1.49416 250.325 1.29494 250.901 1.49416C251.478 1.59377 252.918 1.89259 252.918 1.79298C252.918 1.69338 253.783 1.29494 254.647 1.29494C255.512 1.29494 259.257 1.39454 261.851 1.19533L264.444 1.49416L267.037 1.09572C268.478 0.896498 269.631 0.796888 269.919 0.896498C270.207 0.996107 271.36 0.796888 271.648 0.796888C271.648 0.796888 273.088 0.697279 274.241 0.796889C275.394 0.796889 278.851 0.996111 279.139 0.996111C279.716 0.996111 281.156 0.796889 281.733 0.69728C282.309 0.597666 284.902 0.59767 286.055 0.398452L287.496 0.796889L288.36 0.996112C289.224 0.896503 290.377 0.896503 290.953 0.996112C291.53 1.09572 293.258 0.69728 293.835 0.69728C294.411 0.69728 296.14 0.896503 296.14 0.996112C296.14 1.09572 297.004 1.29494 297.869 1.09572L298.445 0.896499L299.021 0.69728C299.886 0.79689 300.75 0.79689 301.038 0.79689C301.326 0.697281 302.479 0.697281 302.479 0.79689C302.479 0.896499 302.767 0.996109 303.055 0.597671L304.208 0.79689L304.784 0.8965C305.36 0.79689 306.225 0.79689 306.513 0.79689C306.801 0.79689 308.53 0.996109 308.818 0.8965C309.394 0.8965 311.123 0.896504 311.7 0.996113C312.276 1.09572 314.005 0.996109 314.869 1.09572L315.734 1.09572C316.022 1.09572 316.598 0.996113 316.886 0.996113C317.463 1.19533 317.751 0.996113 318.327 0.996113C318.615 0.996113 319.191 1.09572 319.48 1.19533C319.48 1.19533 320.056 1.09572 320.056 0.996114L320.056 0.8965C319.768 0.796891 319.768 0.796891 319.768 0.697282C319.768 0.697282 320.344 0.697282 320.92 0.697282C321.208 0.697282 322.937 0.697282 323.514 0.597672L324.09 0.597672C325.242 0.597673 326.395 0.796891 326.971 0.697282L328.124 0.498063C328.988 0.597673 330.141 0.697282 330.429 0.697282C331.005 0.697282 332.446 0.498064 332.734 0.398454C333.022 0.298841 333.599 0.697282 333.599 0.796892C333.599 0.796892 334.751 0.796892 335.616 0.796892C336.768 0.796892 340.226 0.597673 341.09 0.597673C341.955 0.597673 343.972 1.19533 344.26 1.09572C344.548 0.996111 345.124 0.597674 346.565 0.498064C347.718 0.498064 352.328 0.896502 354.345 1.09572L356.074 0.597674L356.65 0.498065C357.803 0.597674 358.955 0.697284 359.243 0.697284C359.532 0.796893 360.684 0.697284 361.26 0.697284C361.837 0.796893 363.566 0.597675 363.854 0.498065C364.142 0.498065 365.583 0.498065 366.735 0.597675C367.6 0.597675 371.634 0.498066 373.362 0.398456L374.803 0.697285C374.803 0.697285 378.261 0.398457 378.549 0.398457C378.837 0.298843 378.837 0.298847 379.125 0.298847L379.99 0.199234C380.854 0.298844 381.43 0.498066 381.43 0.597676C381.43 0.697285 381.719 0.996117 382.007 0.996117C382.295 0.996117 383.159 0.896504 382.871 0.796894L382.871 0.697285L382.871 0.597676C382.871 0.398457 383.736 0.298847 384.6 0.298848L385.464 0.298848L386.041 0.298848C386.617 0.199238 388.058 0.199235 388.922 0.199235C389.787 0.199235 392.668 0.298848 393.244 0.298848C393.821 0.298848 395.55 0.398458 396.126 0.298848C396.702 0.199239 398.431 0.398458 398.719 0.298848L399.007 0.298848C400.448 0.199239 401.601 0.298845 403.041 0.398458L404.194 0.498067C405.923 0.498067 407.652 0.498068 408.228 0.498068C408.804 0.498068 409.38 0.896505 409.957 0.597677L410.245 0.498068L410.533 0.398458C410.821 0.298845 411.686 0.19924 412.55 0.0996303C413.414 1.71364e-05 416.296 0.398459 416.872 0.398459C417.448 0.398459 418.313 0.398459 418.601 0.398459C418.889 0.398459 420.33 0.398459 420.618 0.398459C420.906 0.398459 422.923 0.398459 423.788 0.398459C424.652 0.398459 426.957 0.597674 426.957 0.697287C426.957 0.796897 427.533 0.597678 428.11 0.29885L429.551 0.597678C429.839 0.697287 430.991 0.29885 431.856 0.29885L432.72 0.29885C433.585 0.39846 435.025 0.29885 435.89 2.21455e-05L437.042 0.29885L437.619 0.498069C438.771 0.597679 439.924 0.697288 440.212 0.597679C440.5 0.498069 441.364 0.199237 441.653 0.39846C441.941 0.498069 443.093 0.697288 443.67 0.498069L444.246 0.39846C444.534 0.39846 445.398 0.39846 445.398 0.39846L445.398 0.896507C446.839 0.996116 448.28 0.996117 448.28 0.896507C448.28 0.697288 449.144 0.49807 450.009 0.49807L450.585 0.39846C451.161 0.39846 451.449 0.199242 451.449 0.49807C451.449 0.796898 452.314 0.796898 452.602 0.697289C454.043 0.398457 455.483 0.597679 456.924 0.49807L458.077 0.49807C459.229 0.398461 460.382 0.398461 460.382 0.398461L460.67 0.398461L461.823 0.49807C463.551 0.59768 464.416 0.697289 463.84 0.796899C463.263 0.896508 464.416 1.19534 464.416 1.29495C464.416 1.39456 465.28 1.49417 465.28 1.29495C465.28 1.09573 465.857 0.498071 466.433 0.59768L466.721 0.697289L467.009 0.796899C467.297 0.996118 468.45 1.09573 469.026 0.996121C469.891 0.896512 471.908 0.796899 472.196 0.896508C472.484 1.09573 473.637 1.39456 474.213 1.19534L474.213 0.996122L474.213 0.498071C475.077 0.498071 476.806 0.498071 477.671 0.597681C478.535 0.69729 481.416 0.597681 481.705 0.597681C481.993 0.597681 482.857 0.69729 483.433 0.7969C484.01 0.896509 486.315 0.7969 487.179 0.69729L487.756 0.7969L488.332 0.896509C488.908 1.19534 489.773 1.39456 490.349 1.29495C490.925 1.19534 492.366 0.89651 492.366 0.7969L492.366 0.697291L492.366 0.597681C492.366 0.498072 492.654 0.498072 492.942 0.498072C493.23 0.498072 493.807 0.697291 494.383 0.89651C494.671 0.996119 496.688 0.697291 496.976 0.697291C497.264 0.697291 498.417 0.7969 498.993 0.7969L498.993 0.89651L499.281 1.19534C498.417 1.19534 497.264 1.19534 496.688 1.19534C496.112 1.19534 495.824 1.793 496.4 1.793C496.976 1.793 498.993 1.793 498.993 1.59378L499.281 1.39456C499.569 1.19534 500.146 0.89651 500.722 0.89651C502.163 0.89651 501.01 1.29495 501.586 1.49417C501.875 1.49417 502.451 1.39456 503.027 1.09573C503.603 0.89651 506.773 0.89651 507.637 0.89651C508.502 0.89651 509.655 1.39456 509.943 1.19534C510.231 0.99612 508.214 0.796901 507.926 0.796901C507.926 0.796901 507.637 0.597682 507.926 0.498073L508.214 0.498073L508.79 0.498073C509.366 0.597682 510.519 0.796901 511.383 1.09573L511.672 1.99222C511.672 2.09183 512.824 2.29105 512.824 2.29105C515.417 1.69339 514.553 2.39066 514.841 2.68948C515.129 2.78909 515.417 2.68948 515.417 2.39066C515.417 2.19144 515.994 1.793 516.57 1.99222C517.146 2.19144 518.011 1.39456 518.299 1.29495C518.587 1.19534 519.451 0.697292 519.74 0.697292C520.028 0.697292 522.045 0.697292 523.485 0.697292L524.926 0.697293L525.214 0.697293C525.502 0.697293 525.791 0.697293 525.791 0.796902C525.791 0.896511 525.791 1.09573 525.791 1.19534C525.791 1.29495 524.638 1.69339 524.062 1.59378L523.485 1.59378L522.909 1.59378C522.621 1.49417 521.757 1.39456 520.892 1.29495L520.316 1.29495C520.028 1.29495 519.451 1.29495 519.451 1.39456L519.163 1.59378C518.875 1.89261 518.011 2.09183 517.434 2.09183L517.146 2.19144C516.57 2.39066 516.57 2.68949 516.282 2.7891L515.129 3.08792C515.706 3.28714 516.57 3.48636 516.858 3.58597C517.146 3.58597 518.299 3.48636 518.299 3.18753C518.299 2.8887 519.163 2.09183 520.028 2.09183L520.604 1.89261C521.18 1.59378 521.757 1.59378 522.909 1.793L523.774 1.69339ZM514.553 3.98441C515.129 4.08402 515.994 4.08402 515.994 4.08402C515.994 4.08402 515.994 3.8848 515.417 3.78519C515.129 3.68558 512.824 3.58597 511.672 3.78519L510.519 3.48636C510.519 3.48636 509.943 3.48636 509.943 3.58597L509.654 3.68558C509.078 3.8848 509.078 4.08402 509.943 4.08402C510.519 4.08402 513.689 3.8848 514.553 3.98441ZM535.299 3.48636C536.164 3.38675 536.74 3.18754 536.452 2.98832C536.164 2.7891 534.147 3.18753 533.859 3.28714C533.57 3.38675 531.265 3.38675 530.689 3.38675C529.825 3.38675 527.808 3.48636 528.096 3.68558C528.384 3.8848 530.401 3.68558 530.977 3.68558C531.553 3.68558 532.994 3.68558 533.859 3.78519L534.723 3.68558L535.299 3.48636ZM32.7764 31.2774C31.9119 31.1778 31.6238 31.2774 31.9119 31.4766C32.2001 31.6759 33.6408 32.3731 34.217 32.7716L35.3697 32.2735L36.2341 31.8751C37.0985 31.9747 37.3867 32.0743 36.8104 31.9747C36.2341 31.9747 33.6408 31.377 32.7764 31.2774ZM367.311 3.38674C368.176 3.38674 369.328 3.28713 369.328 3.18752L369.04 2.98831C369.328 2.78909 369.328 2.58987 368.752 2.49026C368.464 2.39065 367.023 2.68948 366.159 2.68948C365.871 2.88869 366.447 3.38674 367.311 3.38674ZM20.3862 31.5763C20.9625 31.8751 21.2506 31.8751 20.9625 31.5763C20.6743 31.2774 18.3691 30.9786 17.7929 30.9786L17.7929 31.2774L17.7929 31.377C17.2166 31.6759 17.7929 31.6759 19.2336 31.377L19.8099 31.4766L20.3862 31.5763ZM541.927 3.78519C543.655 3.68558 544.52 3.58597 543.655 3.48636C542.791 3.38675 541.062 3.18754 540.774 3.08793C540.198 2.98832 538.757 2.88871 538.757 2.98832C538.757 3.08793 539.333 3.48636 540.198 3.38675L540.486 3.38675L541.927 3.78519ZM471.043 2.78909C471.331 2.78909 471.331 2.49026 470.755 2.09182L469.891 1.99222L469.026 1.793C468.162 1.59378 467.009 1.49417 466.433 1.49417L466.145 1.59378L465.857 1.69338C465.857 1.8926 466.721 1.99222 467.874 1.99222L468.45 2.09182L469.026 2.19143C469.602 2.49026 470.755 2.78909 471.043 2.78909ZM237.358 2.78908C236.782 2.88869 236.782 2.9883 237.07 3.08791C237.359 3.18752 238.511 3.48635 238.799 3.58596C239.087 3.68557 240.24 3.58596 239.952 3.28713C239.664 3.18752 237.647 2.78908 237.358 2.78908ZM494.095 2.29104C494.383 2.58988 494.383 2.58988 494.095 2.29104C494.095 2.09183 494.383 1.49417 493.807 1.49417C493.23 1.49417 494.095 1.99222 494.095 2.29104ZM715.101 20.6192C714.525 20.6192 714.237 20.7188 714.237 20.9181L714.525 20.9181C715.677 20.9181 715.966 21.1173 715.966 21.4161L715.966 21.5157C716.254 21.7149 716.542 21.6153 717.118 21.4161C717.694 21.2169 715.677 20.7188 715.101 20.6192ZM724.898 15.838C724.898 15.9376 725.474 16.0372 725.762 16.1368L726.051 16.2364C726.339 16.336 726.627 16.4356 727.203 16.336C727.779 16.2364 728.068 16.1368 727.203 15.9376C726.627 15.838 727.779 15.3399 726.339 15.3399C726.051 15.3399 725.474 15.6388 724.898 15.838Z" fill="#f55581"/>
</svg>
