<?xml version="1.0" encoding="UTF-8"?>
<svg width="22px" height="22px" viewBox="0 0 22 22" version="1.1" xmlns="http://www.w3.org/2000/svg" xmlns:xlink="http://www.w3.org/1999/xlink">
    <!-- Generator: sketchtool 52.4 (67378) - http://www.bohemiancoding.com/sketch -->
    <title>C77E5798-62BF-494F-909C-6F2404721FC1</title>
    <desc>Created with sketchtool.</desc>
    <defs>
        <path d="M24.0323276,3.5 C24.2904828,3.5 24.5,3.70406522 24.5,3.95652174 L24.5,24.0434783 C24.5,24.2959348 24.2904828,24.5 24.0323276,24.5 L3.96767241,24.5 C3.70951724,24.5 3.5,24.2959348 3.5,24.0434783 L3.5,3.95652174 C3.5,3.70406522 3.70951724,3.5 3.96767241,3.5 L24.0323276,3.5 Z M23.5646552,23.5869565 L23.5646552,4.41304348 L4.43534483,4.41304348 L4.43534483,23.5869565 L23.5646552,23.5869565 Z M9.23275862,13.6064783 C7.79653664,13.6064783 6.62829095,12.466087 6.62829095,11.0641087 C6.62829095,9.66213043 7.79653664,8.52173913 9.23275862,8.52173913 C10.6689806,8.52173913 11.8372263,9.66213043 11.8372263,11.0645652 C11.8372263,12.466087 10.6689806,13.6064783 9.23275862,13.6064783 Z M9.23275862,9.43478261 C8.31237931,9.43478261 7.56363578,10.166587 7.56363578,11.0645652 C7.56363578,11.9625435 8.31237931,12.6934348 9.23275862,12.6934348 C10.1531379,12.6934348 10.9018815,11.962087 10.9018815,11.0641087 C10.9018815,10.1661304 10.1531379,9.43478261 9.23275862,9.43478261 Z M6.08006134,20.9019983 C5.95051609,20.9019983 5.8214385,20.8499548 5.72883936,20.7472375 C5.55813893,20.5577809 5.57684583,20.2692592 5.77092988,20.1026288 L12.6729569,14.1214348 C12.8581552,13.9625652 13.1378233,13.9712391 13.3127328,14.1415217 L15.530903,16.3068043 L20.1112866,11.4096957 C20.195,11.3202174 20.3119181,11.2668043 20.4358513,11.2613261 C20.5588491,11.258587 20.6809116,11.2992174 20.7725754,11.3809348 L22.1967151,12.6263973 C22.3875254,12.79668 22.4001526,13.0856582 22.2257108,13.2714626 C22.051269,13.4572669 21.7552323,13.4700495 21.5648896,13.2997669 L20.4863599,12.3633696 L16.1926595,16.9532391 L18.4407608,19.1477391 C18.6236207,19.3262391 18.6236207,19.6147609 18.4407608,19.7932609 C18.2579009,19.9717609 17.9623319,19.9717609 17.779472,19.7932609 L12.9615108,15.0906304 L6.38872514,20.7883244 C6.29986738,20.8645635 6.18949669,20.9019983 6.08006134,20.9019983 Z" id="path-1"></path>
    </defs>
    <g id="Page-1" stroke="none" stroke-width="1" fill="none" fill-rule="evenodd">
        <g id="Upload-photo---exp-1" transform="translate(-241.000000, -490.000000)">
            <g id="choose-existing-photo" transform="translate(226.000000, 475.000000)">
                <g id="icon/image" transform="translate(12.000000, 12.000000)">
                    <mask id="mask-2" fill="white">
                        <use xlink:href="#path-1"></use>
                    </mask>
                    <use id="Mask" stroke="#000000" stroke-width="0.5" fill="#000000" fill-rule="nonzero" xlink:href="#path-1"></use>
                    <g id="COLOR/-blue-dark" mask="url(#mask-2)" fill="#1C213F" fill-rule="evenodd">
                        <rect id="Rectangle" x="0" y="0" width="28" height="28"></rect>
                    </g>
                </g>
            </g>
        </g>
    </g>
</svg>