<svg width="26" height="25" viewBox="0 0 26 25" fill="none" xmlns="http://www.w3.org/2000/svg">
<path d="M19.1434 25H5.86022C2.6289 25 0 22.3711 0 19.1398V10.9222C0 9.106 0.862186 7.36409 2.30629 6.26261L8.94788 1.19699C11.0404 -0.398996 13.9632 -0.398996 16.0557 1.19699L18.1667 2.80562V1.5591C18.2183 0.26321 20.069 0.264186 20.1201 1.5591V4.77788C20.1201 5.14917 19.9096 5.48833 19.5768 5.65315C19.2441 5.81792 18.8467 5.77973 18.5514 5.55475L14.8714 2.75048C13.4761 1.68627 11.5275 1.68627 10.1325 2.75024L3.49089 7.81587C2.5282 8.5501 1.95341 9.71136 1.95341 10.9222V19.1398C1.95341 21.294 3.70601 23.0466 5.86022 23.0466H19.1434C21.2976 23.0466 23.0502 21.294 23.0502 19.1398V10.9222C23.0502 9.69651 22.4819 8.5313 21.53 7.80522C21.1011 7.47807 21.0186 6.86519 21.3458 6.43632C21.6729 6.0074 22.2858 5.92492 22.7147 6.25207C24.1479 7.34519 25.0036 9.09105 25.0036 10.9222V19.1398C25.0036 22.3711 22.3747 25 19.1434 25ZM10.5484 11.2773C9.87414 11.2773 9.32752 11.8239 9.32752 12.4982C9.39204 14.1181 11.7054 14.1168 11.7693 12.4982C11.7693 11.8239 11.2227 11.2773 10.5484 11.2773ZM15.6761 12.4981C15.6116 14.118 13.2983 14.1168 13.2343 12.4981C13.2989 10.8783 15.6122 10.8795 15.6761 12.4981ZM11.7693 16.405C11.7048 18.0248 9.39145 18.0236 9.32752 16.405C9.39204 14.7851 11.7054 14.7864 11.7693 16.405ZM15.6761 16.405C15.6116 18.0248 13.2983 18.0236 13.2343 16.405C13.2989 14.7851 15.6122 14.7864 15.6761 16.405Z" fill="white"/>
</svg>
