<svg width="35" height="35" viewBox="0 0 35 35" fill="none" xmlns="http://www.w3.org/2000/svg">
<path d="M32.6279 7.89705C31.3359 6.59113 29.6816 5.77066 27.8838 5.53819L27.3301 3.82887C26.5918 1.53839 24.4727 0 22.0664 0H15.3398C12.9336 0 10.8145 1.53839 10.0762 3.82887L9.54297 5.46982H8.20312C3.67773 5.46298 0 9.14143 0 13.6677V26.7953C0 31.3215 3.67773 35 8.20312 35H26.7969C31.3223 35 35 31.3215 35 26.7953V13.6677C35 11.4935 34.1592 9.44227 32.6279 7.89705ZM32.2656 26.7953C32.2656 29.8105 29.8115 32.2651 26.7969 32.2651H8.20312C5.18848 32.2651 2.73438 29.8105 2.73438 26.7953V13.6677C2.73438 10.6525 5.18848 8.19789 8.20312 8.19789H10.5342C11.1289 8.19789 11.6553 7.815 11.833 7.25435L12.667 4.66986C13.043 3.50752 14.1162 2.72807 15.333 2.72807H22.0596C23.2764 2.72807 24.3496 3.50752 24.7256 4.66986L25.5664 7.25435C25.751 7.815 26.2637 8.19105 26.8516 8.19789C29.8389 8.22524 32.2656 10.6798 32.2656 13.6677V26.7953Z" fill="white"/>
<path d="M23.0439 7.89021C23.0439 7.13811 22.4287 6.52276 21.6768 6.52276H15.7227C14.9707 6.52276 14.3555 7.13811 14.3555 7.89021C14.3555 8.64231 14.9707 9.25767 15.7227 9.25767H21.6768C22.4287 9.25767 23.0439 8.64231 23.0439 7.89021Z" fill="white"/>
<path d="M18.7305 12.1977C14.2051 12.1977 10.5273 15.8761 10.5273 20.4024C10.5273 24.9287 14.2051 28.6072 18.7305 28.6072C23.2559 28.6072 26.9336 24.9287 26.9336 20.4024C26.9336 15.8761 23.2559 12.1977 18.7305 12.1977ZM18.7305 25.8722C15.7158 25.8722 13.2617 23.4177 13.2617 20.4024C13.2617 17.3872 15.7158 14.9326 18.7305 14.9326C21.7451 14.9326 24.1992 17.3872 24.1992 20.4024C24.1992 23.4177 21.7451 25.8722 18.7305 25.8722Z" fill="white"/>
</svg>
