<svg width="35" height="35" viewBox="0 0 35 35" fill="none" xmlns="http://www.w3.org/2000/svg">
<path d="M26.7969 35H8.20312C3.67992 35 0 31.3201 0 26.7969V8.20312C0 3.67992 3.67992 0 8.20312 0H26.7969C31.3201 0 35 3.67992 35 8.20312V26.7969C35 31.3201 31.3201 35 26.7969 35ZM8.20312 2.73438C5.18766 2.73438 2.73438 5.18766 2.73438 8.20312V26.7969C2.73438 29.8123 5.18766 32.2656 8.20312 32.2656H26.7969C29.8123 32.2656 32.2656 29.8123 32.2656 26.7969V8.20312C32.2656 5.18766 29.8123 2.73438 26.7969 2.73438H8.20312ZM22.6953 12.9883C23.6392 12.9883 24.4043 12.2231 24.4043 11.2793C24.3143 9.01236 21.076 9.01298 20.9863 11.2793C20.9863 12.2231 21.7515 12.9883 22.6953 12.9883ZM29.2682 19.136C28.6995 18.6396 27.8357 18.6981 27.3391 19.267L25.0256 21.9175C24.2128 22.8015 23.4491 22.8624 22.4822 22.1175C22.4822 22.1175 16.1241 16.0962 16.0921 16.0709C14.2575 14.62 11.6633 14.7021 9.924 16.2663C9.8957 16.2917 5.90844 20.5281 5.90844 20.5281C5.39109 21.0781 5.41748 21.9434 5.96743 22.4607C6.51752 22.9781 7.38274 22.9516 7.90002 22.4016L11.79 18.2664C12.5213 17.6396 13.5833 17.6053 14.3536 18.183C14.3536 18.183 20.7092 24.202 20.7411 24.2272C21.6882 24.9761 22.7795 25.3613 23.7891 25.3613C24.6 25.3347 25.8785 25.0387 27.0546 23.7506C27.0615 23.7431 27.0683 23.7355 27.075 23.7279L29.3992 21.0651C29.8957 20.4963 29.8371 19.6325 29.2682 19.136Z" fill="white"/>
</svg>
