<?xml version="1.0" encoding="UTF-8"?>
<svg width="19px" height="34px" viewBox="0 0 19 34" version="1.1" xmlns="http://www.w3.org/2000/svg" xmlns:xlink="http://www.w3.org/1999/xlink">
    <!-- Generator: sketchtool 52.4 (67378) - http://www.bohemiancoding.com/sketch -->
    <title>A4C91F62-70EF-42E1-8331-E8311F943E58</title>
    <desc>Created with sketchtool.</desc>
    <defs>
        <path d="M17.5925926,29.3494707 L17.5925926,29.5059555 C17.5925926,31.1056774 16.2180052,32.4069603 14.5276407,32.4069603 L12.4848181,32.4070575 C12.4770871,32.4072902 12.4693252,32.4074074 12.4615344,32.4074074 L8.7962963,32.407233 L5.13105819,32.4074074 C5.12326739,32.4074074 5.11550553,32.4072902 5.10777447,32.4070575 L3.06495193,32.4069603 C1.37458736,32.4069603 -4.26325641e-13,31.1056774 -4.26325641e-13,29.5059555 L-4.26325641e-13,29.3494707 L-2.84217094e-13,2.81422632 C-2.84217094e-13,1.26258034 1.28137714,0 2.85663963,0 L14.7364161,0 C16.3116786,0 17.5925926,1.26258034 17.5925926,2.81422632 L17.5925926,29.3494707 Z M16.2576069,29.5848927 C16.2532537,29.5544791 16.2510025,29.5234012 16.2510025,29.4918066 L16.2510025,5.70282943 C16.2510025,5.31360608 15.9295582,4.99693432 15.5342373,4.99693432 L2.05812375,4.99693432 C1.66303439,4.99693432 1.34182165,5.31360608 1.34182165,5.70282943 L1.34182165,29.4918066 C1.34182165,29.5141949 1.3406918,29.5363232 1.33848515,29.5581392 C1.37170833,30.3820121 2.18732694,31.0439776 3.06495193,31.0439776 L8.7962963,31.0442503 L14.5276407,31.0439776 C15.3957455,31.0439776 16.2077524,30.3962958 16.2576069,29.5848927 Z M3.18987222,29.9145299 C2.81616441,29.9145299 2.51322751,29.6355118 2.51322751,29.2913105 C2.51322751,28.9471093 2.81616441,28.6680912 3.18987222,28.6680912 L14.4027204,28.6680912 C14.7764282,28.6680912 15.0793651,28.9471093 15.0793651,29.2913105 C15.0793651,29.6355118 14.7764282,29.9145299 14.4027204,29.9145299 L3.18987222,29.9145299 Z M2.85663963,1.32189925 C2.02106964,1.32189925 1.34182165,1.99106227 1.34182165,2.81422632 L1.34182165,3.80895893 C1.56553579,3.72636874 1.80546109,3.67503507 2.05812375,3.67503507 L15.5342373,3.67503507 C15.7873631,3.67503507 16.0268252,3.72636874 16.2510025,3.80895893 L16.2510025,2.81422632 C16.2510025,1.99106227 15.5715229,1.32189925 14.7364161,1.32189925 L2.85663963,1.32189925 Z M8.7962963,3.11609687 C8.44929199,3.11609687 8.16798942,2.83707205 8.16798942,2.49287749 C8.16798942,2.14868294 8.44929199,1.86965812 8.7962963,1.86965812 C9.1433006,1.86965812 9.42460317,2.14868294 9.42460317,2.49287749 C9.42460317,2.83707205 9.1433006,3.11609687 8.7962963,3.11609687 Z M6.41941624,10.8316245 C6.41941624,12.6156004 7.48712137,14.0674332 8.79911852,14.0674332 C10.1115672,14.0674332 11.1790466,12.6156004 11.1790466,10.8316245 C11.1790466,9.04694277 10.1115672,7.59510999 8.79911852,7.59510999 C7.48712137,7.59510999 6.41941624,9.04694277 6.41941624,10.8316245 Z M3.85435005,19.8265424 L14.4255114,19.8265424 C14.7867565,19.8265424 15.0793651,20.1313991 15.0793651,20.5080006 C15.0793651,20.8843668 14.7867565,21.1894587 14.4255114,21.1894587 L3.17295143,21.1894587 C2.81531875,21.1894587 2.52406487,20.8902475 2.51909775,20.5181154 L2.51322751,20.3972077 C2.51322751,17.693722 4.2081445,15.3873026 6.58152499,14.4821418 C5.69421665,13.6414337 5.11125732,12.3250927 5.11125732,10.8316245 C5.11125732,8.29538643 6.76598579,6.23219373 8.79911852,6.23219373 C10.832477,6.23219373 12.4872055,8.29538643 12.4872055,10.8316245 C12.4872055,12.327445 11.9026657,13.6456678 11.0133254,14.4859054 C12.4080085,15.0138489 13.5860048,16.0210595 14.3129126,17.3549483 C14.4986954,17.6958632 13.6538015,19.2302372 13.5382031,18.8736302 C13.4741314,18.6751153 13.3985384,18.4828799 13.3122971,18.2975578 C12.5038559,16.5603149 10.7597001,15.4305847 8.79911852,15.4305847 C6.24759903,15.4305847 4.13883059,17.355698 3.85435005,19.8265424 Z M8.79618534,23.7111133 C8.11914176,23.7111133 7.56880806,24.2573828 7.56880806,24.928885 C7.56880806,25.6006072 8.11914176,26.1464366 8.79618534,26.1464366 C9.47345084,26.1464366 10.0237845,25.6006072 10.0237845,24.928885 C10.0237845,24.2573828 9.47345084,23.7111133 8.79618534,23.7111133 Z M8.79618534,27.4216524 C7.41058713,27.4216524 6.28306878,26.3033625 6.28306878,24.928885 C6.28306878,23.5541873 7.41058713,22.4358974 8.79618534,22.4358974 C10.1820055,22.4358974 11.3095238,23.5541873 11.3095238,24.928885 C11.3095238,26.3033625 10.1820055,27.4216524 8.79618534,27.4216524 Z" id="path-1"></path>
    </defs>
    <g id="Page-1" stroke="none" stroke-width="1" fill="none" fill-rule="evenodd">
        <g id="Upload-photo---exp-1" transform="translate(-115.000000, -483.000000)">
            <g id="take-a-selfie" transform="translate(98.000000, 474.000000)">
                <g id="take-photo">
                    <g id="icon/take-a-selfie" transform="translate(18.000000, 10.000000)">
                        <mask id="mask-2" fill="white">
                            <use xlink:href="#path-1"></use>
                        </mask>
                        <use id="Mask" stroke="#E9F3FF" stroke-width="0.5" fill="#1C213F" fill-rule="evenodd" xlink:href="#path-1"></use>
                        <g id="COLOR/-blue-dark" mask="url(#mask-2)" fill="#1C213F" fill-rule="evenodd">
                            <rect id="Rectangle" x="0" y="0" width="17.7777778" height="31.6049383"></rect>
                        </g>
                    </g>
                </g>
            </g>
        </g>
    </g>
</svg>