<svg width="385" height="38" viewBox="0 0 385 38" fill="none" xmlns="http://www.w3.org/2000/svg">
<path d="M273.613 1.94418C274.065 1.81661 274.667 1.62526 274.968 1.49769C275.269 1.30634 276.322 1.17876 276.172 1.30634C276.021 1.4339 275.419 1.68905 275.269 1.81661C275.118 1.8804 275.871 2.07175 275.871 2.19932L276.172 2.19932L276.473 2.32689C276.774 2.51824 277.075 2.7096 277.226 2.77338C277.376 2.83717 277.828 2.64581 277.978 2.51824L277.978 2.39067L277.978 2.32689C277.978 2.2631 277.978 2.07175 278.279 1.8804C278.43 1.68904 278.58 1.24255 278.58 1.17877C278.731 1.17877 278.881 1.17877 279.032 1.24255C279.182 1.30634 279.483 1.49769 279.784 1.56147C279.935 1.62526 279.032 1.81661 279.032 1.8804C278.881 1.94418 278.881 2.07175 279.333 1.94418C279.634 1.88039 280.688 2.13553 280.838 2.07175C280.989 2.07175 280.838 1.75283 280.688 1.68904L280.688 1.62526L280.688 1.56147C280.688 1.49769 281.139 1.4339 281.741 1.4339L282.193 1.4339L282.343 1.4339C282.343 1.24255 282.644 1.11498 282.644 1.11498C282.795 1.11498 283.397 1.11498 283.849 1.11498L283.999 1.30634C283.548 1.30634 283.247 1.43391 283.397 1.49769C283.397 1.56147 283.849 1.75283 284.15 1.62526C284.451 1.49769 285.354 1.24255 285.655 1.24255C285.956 1.24255 287.01 1.24255 287.16 1.24255C287.16 1.24255 287.01 1.30634 286.709 1.30634C286.408 1.30634 285.655 1.4339 285.655 1.56148C285.655 1.68904 284.601 1.81661 284.3 1.81661C284.15 1.81661 283.548 1.94418 283.397 1.94418L283.397 2.00797C283.397 2.07175 283.548 2.13554 283.698 2.13554C284.752 2.00797 285.805 1.8804 286.859 1.8804L287.612 1.8804C287.913 1.68904 288.364 1.49769 288.665 1.4339C288.816 1.37012 289.267 1.62526 289.267 1.62526C289.418 1.62526 289.87 1.75283 290.02 1.75283C290.171 1.81661 290.773 1.94418 290.622 1.94418C290.472 2.00797 290.02 2.07175 289.87 2.00797L289.87 1.94418L289.568 1.68904C288.966 1.75283 288.364 1.75283 288.364 1.81661C288.214 1.81661 288.063 2.00797 288.063 2.07175C288.063 2.13553 288.816 2.32689 289.117 2.32689C289.418 2.77338 290.02 2.51824 290.171 2.39067C290.472 2.07175 291.224 2.07175 291.676 1.94418L292.127 1.81661C292.428 1.62526 292.729 1.56148 292.729 1.68904L292.729 1.75283L292.729 1.8804C293.181 1.94418 293.934 2.13554 294.385 2.19932L294.536 2.32689C294.686 2.58203 295.138 2.58203 295.89 2.58203C296.191 2.58203 296.493 2.7096 296.643 2.7096C296.794 2.7096 296.944 2.51824 297.095 2.45446C297.396 2.45446 297.396 2.39068 297.095 2.32689C296.794 2.26311 296.493 2.07175 296.643 2.00797C296.794 1.94418 298.299 2.19932 298.148 2.26311L297.998 2.32689C297.697 2.58203 298.148 2.7096 298.75 2.58203C299.352 2.51824 299.503 2.64581 299.804 2.7096L300.256 2.7096C300.707 2.7096 301.761 2.64581 302.363 2.58203L302.814 2.83717L303.266 2.90095C303.718 2.90095 304.32 2.83717 304.621 2.77338C304.922 2.7096 306.126 2.90095 306.427 2.90095C306.728 2.90095 307.33 2.90095 307.631 2.90095C307.932 2.90095 308.986 2.96474 309.287 2.83717C309.588 2.7096 310.792 2.64582 311.244 2.83717L311.996 2.77338L312.448 2.7096C313.05 2.7096 313.803 2.77338 314.405 2.77338C314.856 2.77338 316.362 2.64581 316.964 2.58203C317.566 2.51825 319.523 2.64582 320.125 2.64582L320.877 2.77338L321.63 2.83717C322.533 2.77338 323.587 2.64582 323.737 2.64582C323.888 2.64582 324.791 2.64582 325.242 2.64582C325.694 2.64582 326.898 2.58203 327.049 2.58203C327.049 2.64581 327.35 2.7096 327.5 2.64582C327.651 2.58203 328.253 2.51825 328.403 2.58203L328.554 2.64582L328.704 2.7096C328.855 2.7096 329.156 2.7096 329.307 2.64582C329.457 2.58203 329.758 2.51825 329.909 2.58203C330.059 2.64581 330.661 2.51825 330.661 2.51825C330.812 2.51825 331.414 2.45446 332.016 2.39067L332.618 2.45446C332.919 2.51825 333.22 2.51825 333.521 2.58203C333.822 2.64581 334.123 2.83717 334.725 2.64582C334.725 2.64582 335.026 2.64581 335.177 2.7096C335.779 2.90096 335.93 2.96474 336.532 2.64582L336.983 2.45446C337.284 2.7096 337.585 2.90096 337.736 2.83717C337.886 2.77338 338.338 2.64581 338.338 2.7096C338.488 2.77338 338.789 2.96474 339.091 2.96474C339.392 2.96474 339.994 2.77338 340.144 2.7096C340.295 2.64581 340.746 2.77339 340.897 2.7096C340.897 2.64581 341.047 2.64582 341.047 2.77339C341.047 2.90096 341.95 2.7096 341.95 2.64582C342.553 2.58203 342.553 2.96474 343.305 2.83717L343.757 2.77339C344.359 2.77339 344.961 2.77339 345.111 2.77339C345.262 2.77339 345.864 2.7096 346.316 2.7096C346.767 2.7096 347.821 2.83717 348.122 2.7096L348.423 2.64582L348.573 2.58203C348.875 2.58203 349.326 2.7096 349.627 2.77339C349.928 2.83717 351.433 2.64581 351.584 2.7096C351.734 2.77339 352.337 2.90096 352.487 2.83717C352.638 2.77339 353.39 2.90095 353.39 2.90095L353.541 2.83717C353.691 2.77339 353.691 2.7096 353.842 2.7096C354.143 2.7096 354.745 2.64582 354.745 2.83717L354.745 2.90095C354.293 2.96474 354.143 3.09231 354.293 3.09231C354.444 3.1561 355.046 3.1561 355.196 3.09231C355.347 3.02852 355.949 2.83717 355.949 3.02852L355.949 3.09231C355.949 3.1561 356.1 3.21988 356.1 3.21988L356.401 3.21988C356.702 3.21988 357.003 3.28366 356.852 3.41123L357.454 3.34745L357.605 3.34745C357.755 3.28366 358.056 3.28366 358.508 3.34745C358.809 3.47502 360.314 3.47502 360.615 3.47502C361.067 3.47502 362.271 3.66637 362.723 3.66637C363.024 3.66637 363.927 3.60259 364.077 3.73016C364.228 3.85773 365.733 3.9853 365.884 3.92151L366.787 4.30422C368.141 4.368 369.195 4.43179 369.346 4.43179C369.496 4.43179 370.098 4.43179 370.55 4.43179C371.001 4.43179 372.958 4.368 373.711 4.368L373.861 4.75071C373.861 4.81449 374.162 4.87828 374.313 4.81449L374.764 4.75071C375.216 4.81449 375.818 4.94207 375.818 5.00585C375.969 5.06963 376.721 5.1972 377.022 5.1972C377.323 5.26099 378.076 5.38856 378.226 5.32477C378.377 5.32477 378.678 5.32477 378.829 5.45234L378.829 5.51613C378.979 5.57991 379.28 5.57991 379.431 5.51613C380.033 5.38856 380.635 5.38856 380.936 5.38856C381.839 5.38856 381.387 5.51613 381.387 5.6437C381.387 5.70748 381.839 5.83505 381.237 5.83505C380.936 5.83505 380.635 5.89883 380.334 5.96262C380.033 6.02641 380.033 6.09019 380.334 6.15397L380.635 6.21776C380.334 6.28154 379.882 6.4729 379.431 6.60047C379.13 6.72803 378.678 7.17453 378.979 7.23831L379.28 7.23831L379.581 7.23831C379.882 7.17453 380.484 7.17453 380.785 7.23831C381.086 7.3021 381.086 7.87616 380.936 8.06751C380.785 8.25887 380.484 8.89671 380.635 8.89671C380.635 8.89671 381.086 8.83293 381.387 8.70536L381.839 8.89671L381.99 9.02428C381.839 9.15185 381.688 9.27942 381.538 9.40699L381.839 9.47077L381.99 9.47077C382.441 9.40699 382.742 9.40699 382.592 9.53456L382.592 9.59834L382.592 9.85348C382.893 10.1086 383.194 10.4275 383.194 10.4913C383.194 10.6189 382.742 11.0016 382.14 11.0654C381.538 11.193 381.538 11.767 381.99 11.7032L382.291 11.6394L382.592 11.5757C382.893 11.5119 383.495 11.6394 383.946 11.8308L383.796 12.0222C383.796 12.0859 383.796 12.1497 383.645 12.2135C383.344 12.4049 383.043 12.5324 382.742 12.66C382.441 12.7876 382.14 12.4687 381.839 12.66L381.839 12.7238C381.538 12.7238 381.538 12.7876 381.99 12.8514L381.99 12.9151C381.99 12.9789 381.839 13.1065 381.688 13.1703C381.538 13.2341 381.387 13.2341 381.237 13.2341C380.635 13.3616 380.635 13.6806 380.936 13.6806C381.387 13.7443 381.538 13.8081 381.688 13.9357L381.839 13.9995C382.441 13.9995 382.441 14.127 381.688 14.1908C380.936 14.2546 379.13 14.6373 378.226 14.446L377.173 14.5098C377.022 14.5098 376.571 14.3822 376.42 14.2546L376.27 13.9995C375.818 14.0633 375.517 14.2546 375.668 14.3822L375.668 14.5098C375.517 14.8287 375.367 15.1476 375.216 15.4665L375.216 15.5303C374.614 15.5941 374.313 15.7217 374.162 15.7217C374.012 15.7217 373.56 15.913 373.41 15.913C373.109 15.913 372.356 15.9768 372.206 15.9768C372.055 15.9768 371.754 16.1044 371.603 16.1682C371.453 16.2319 370.851 16.0406 370.851 15.9768C370.7 15.9768 370.249 15.913 370.249 16.0406C370.249 16.1682 369.797 16.4233 369.496 16.2957C369.195 16.2319 368.292 16.3595 368.292 16.4233C368.292 16.4233 368.442 16.5509 368.141 16.6146L367.991 16.6146C367.539 16.5509 366.937 16.2957 366.787 16.6784C366.636 16.6784 366.335 16.6784 366.034 16.6146C365.733 16.5509 364.83 16.7422 364.529 16.7422C364.228 16.7422 363.475 16.7422 363.024 16.7422C362.572 16.7422 361.819 16.9974 362.121 17.0611C362.422 17.1249 363.024 17.3801 362.873 17.5714C362.723 17.7628 364.378 18.273 364.228 18.273C364.077 18.273 363.927 18.4644 364.378 18.592L364.378 18.7195L364.378 18.9747C364.83 18.9747 365.282 19.0385 365.583 19.1022L365.733 19.166L366.034 19.3574C365.884 19.5487 365.884 19.8677 366.034 20.059L366.185 20.2504L366.185 20.3142C366.185 20.3779 365.733 20.3779 365.282 20.2504C364.83 20.1228 363.475 20.3142 363.475 20.3779C363.475 20.4417 363.626 20.5693 363.927 20.5693L364.077 20.5693L364.378 20.5055C364.83 20.4417 364.98 20.4417 364.98 20.5055L364.98 20.5693L364.98 20.6331C364.98 20.6969 364.98 20.7606 365.131 20.7606C365.281 20.7606 365.733 20.6969 365.884 20.7606C366.185 20.7606 365.733 21.1434 365.432 21.3347L364.83 21.3985C364.679 21.3985 364.529 21.3985 364.529 21.4623L364.679 21.9088C363.626 22.1001 363.174 22.2277 363.325 22.2915C363.626 22.3553 364.529 22.2915 364.679 22.2915C364.83 22.2915 366.034 22.4828 366.937 22.6104L367.84 22.5466C368.292 22.5466 368.292 22.6104 368.442 22.738L368.292 22.9293C368.593 22.8018 369.045 22.738 369.496 22.8018C369.948 22.8655 371.152 23.0569 371.302 23.1207L371.001 23.312C371.152 23.5034 371.453 23.631 371.603 23.6947C371.754 23.7585 372.055 23.7585 372.055 23.7585L372.206 23.6947L372.356 23.631C372.507 23.5672 372.958 23.5034 373.259 23.5034C373.56 23.4396 374.614 23.3758 374.764 23.4396C374.915 23.5034 375.216 23.7585 375.065 23.8223C374.915 23.9499 373.711 23.7585 373.259 23.7585L373.259 23.8861C373.109 24.0137 373.41 24.2688 373.56 24.2688L375.668 24.3326C375.367 24.8429 375.367 25.2894 375.668 25.2894C375.969 25.2894 376.571 25.098 376.571 25.098C376.721 25.098 376.872 25.2256 376.872 25.2256C376.872 25.2256 377.022 25.3531 377.173 25.4807C377.323 25.6083 376.872 25.9272 376.721 26.0548L376.721 26.1186L376.721 26.1823C376.721 26.2461 377.022 26.3099 377.173 26.3099L377.323 26.3099L377.474 26.3099C377.624 26.3099 377.775 26.3099 377.925 26.3737L377.624 26.5013C377.173 26.6926 377.173 26.8202 377.775 26.7564L378.076 26.7564L378.678 26.7564C379.431 26.7564 379.882 26.8202 380.033 26.9478L380.033 27.0115L379.882 27.6494C380.635 27.9045 381.387 28.1597 381.538 28.2234L381.538 28.2872L381.688 28.4148C381.688 28.6062 381.839 28.8613 381.99 29.0526L382.291 29.1164C383.344 29.0526 383.344 29.244 383.194 29.4991L383.194 29.5629C383.194 29.7543 383.645 29.8181 384.247 29.6905L383.946 29.9456C383.645 30.137 384.247 30.137 384.398 30.2008C384.398 30.2008 384.849 29.9456 385 30.2008L385 30.2646C384.699 30.3283 384.398 30.3921 384.398 30.3921C384.398 30.3921 384.548 30.6473 384.849 30.8386L384.699 31.0938C384.699 31.1575 384.548 31.2213 384.548 31.2851L384.548 31.3489C384.699 31.4127 384.699 31.4765 384.548 31.4765C384.398 31.4765 383.645 31.4765 383.495 31.604C383.194 31.7316 383.645 32.0505 383.495 32.1143C382.893 31.923 382.441 31.923 381.99 32.1781L381.538 32.3694C380.936 32.1781 380.484 32.1781 380.484 32.2419C380.484 32.3057 379.732 32.5608 379.13 32.6884L378.678 32.3694L378.377 32.1781C377.624 32.3057 377.173 32.497 377.323 32.497C377.474 32.497 377.775 32.6246 377.775 32.6246C377.474 32.6246 377.173 32.6246 376.872 32.5608L376.721 32.5608C376.571 32.5608 376.42 32.5608 376.27 32.6246C376.119 32.6884 375.668 32.6246 375.668 32.6884C375.668 32.7522 375.367 32.8797 375.216 32.7522C374.915 32.8159 374.313 32.6884 374.012 32.8797L373.711 33.0073L373.56 33.0711C373.259 33.0711 372.808 33.0711 372.507 33.0073C372.206 32.9435 370.851 33.0711 370.7 33.0073C370.399 32.9435 369.647 32.8159 369.496 33.0073L369.195 33.1349L368.894 33.2624C368.442 33.2624 367.84 33.2624 367.69 33.1986C367.389 33.1349 366.937 33.39 366.636 33.39C366.335 33.39 365.583 33.3262 365.432 33.2624C365.281 33.1986 364.83 33.1986 364.679 33.2624C364.529 33.39 364.077 33.6451 363.776 33.5814C363.475 33.5176 362.873 33.5814 362.572 33.6451C362.422 33.7089 361.669 33.5814 361.669 33.5814L361.669 33.6451L361.669 33.7727C361.368 33.7727 360.766 33.6451 360.164 33.5814L360.164 33.9003C360.013 33.9003 359.411 33.9641 358.96 34.0278C358.357 34.0916 356.401 33.9641 355.949 33.9641L355.648 33.9003C354.895 33.9003 354.745 33.7089 354.745 33.9641L354.293 34.0278C353.842 33.7727 353.089 33.9641 353.089 34.0278C352.638 34.2192 352.035 33.9641 351.734 34.1554L351.584 34.2192C350.831 34.1554 350.229 34.0278 350.079 34.0278C349.928 34.0278 349.477 34.1554 349.025 34.283C348.573 34.4106 347.219 34.1554 347.219 34.2192L347.219 34.5381C346.617 34.4743 345.563 34.4743 345.111 34.6019L344.66 34.3468L344.208 34.283C343.757 34.3468 343.155 34.4743 342.854 34.5381L342.553 34.5381L342.402 34.5381C342.251 34.5381 341.95 34.5381 341.649 34.5381C341.348 34.5381 340.144 34.5381 339.843 34.5381C339.542 34.5381 338.639 34.6657 338.639 34.6019C338.488 34.5381 338.187 34.4743 338.187 34.5381L338.037 34.6019L337.886 34.6657C337.736 34.7295 337.736 34.7295 337.585 34.6657C337.585 34.6019 337.435 34.5381 337.284 34.4743L337.134 34.4743L336.682 34.6019C336.08 34.6657 335.327 34.7295 335.177 34.7295L335.177 34.7933L334.575 35.0484C334.123 34.7933 333.672 34.6657 333.521 34.7295C333.371 34.7933 333.07 34.9208 332.919 34.9208C332.769 34.857 332.618 35.0484 332.468 35.3035L331.564 34.9846L331.414 34.9208C330.962 34.9846 330.36 34.9846 330.059 34.9846C329.758 34.9846 329.156 34.9208 329.156 34.9846C329.156 35.0484 328.253 35.0484 328.102 35.0484C327.952 34.9846 327.651 35.1122 327.801 35.3673L326.898 35.0484C326.748 35.0484 326.296 35.1122 325.995 35.176L325.844 35.176C325.694 35.2398 324.941 35.3035 324.339 35.3673C323.587 35.4311 321.931 35.1122 321.78 35.1122C321.63 35.1122 320.727 35.176 320.125 35.2398C319.523 35.3035 317.415 35.2398 316.964 35.2398L316.813 35.3035L316.211 35.3673C315.759 35.3035 315.308 35.2398 315.007 35.176L314.706 35.176L314.254 35.176C313.803 35.2398 313.201 35.3673 312.9 35.3673C312.598 35.3673 311.394 35.4311 310.792 35.4311L310.19 35.4311L310.04 35.4311C309.889 35.4949 309.588 35.4311 309.588 35.3673C309.588 35.3035 308.835 35.3673 308.685 35.3673C308.534 35.4311 308.083 35.4949 307.932 35.4949C307.782 35.4311 307.18 35.3673 307.029 35.3673C306.728 35.4311 305.825 35.5587 305.373 35.5587L305.072 35.5587C304.771 35.3673 304.32 35.75 304.019 35.4949L303.868 35.3673C303.266 35.4949 302.664 35.4949 302.513 35.4949C302.363 35.4311 301.911 35.3673 301.761 35.3673C301.761 35.4311 301.46 35.4949 301.46 35.4949C301.309 35.4949 301.008 35.4949 300.858 35.5587C300.707 35.6225 299.503 35.6225 298.6 35.6862L297.697 35.5587C296.944 35.4949 296.041 35.4311 295.138 35.6862L294.686 35.8138C293.934 35.75 293.181 35.6862 293.181 35.6225C293.031 35.5587 292.579 35.5587 292.428 35.6862C292.127 35.8138 291.074 35.5587 291.074 35.6225C291.074 35.6862 290.773 35.8138 290.622 35.6862C290.622 35.6225 290.321 35.4949 290.171 35.6225C290.02 35.75 288.816 35.5587 288.214 35.6225L287.612 35.5587L287.01 35.6225C286.106 35.75 285.203 35.8138 285.053 35.8138C285.053 35.75 284.752 35.6862 284.601 35.75C284.451 35.8138 284.15 35.9414 283.999 35.9414L283.397 35.75C282.644 35.75 281.591 35.8138 281.139 35.75C280.688 35.75 279.032 35.8138 278.731 35.6862L278.279 35.8776C278.279 35.9414 277.677 35.8138 277.376 35.8138L276.473 35.8138C275.419 35.8138 273.914 35.8776 273.312 35.9414L272.71 35.6862L272.559 35.6225C272.258 35.6225 271.656 35.6862 271.355 35.6862C271.054 35.6862 270.302 35.6225 270.302 35.6862C270.302 35.75 269.248 35.75 268.947 35.5587L268.345 35.75L268.194 35.8138C267.743 35.75 267.141 35.75 266.84 35.75C266.689 35.75 265.786 35.6862 265.485 35.6862L265.184 35.6862C265.033 35.6862 264.732 35.6862 264.582 35.6862C264.431 35.6862 264.13 35.75 263.98 35.75L263.829 35.75C263.679 35.75 263.377 35.75 263.076 35.75C262.775 35.8138 262.173 35.6862 261.722 35.5587L261.722 35.8138C261.571 35.8138 260.668 35.75 260.066 35.6225L259.464 35.6225L259.012 35.6225C258.41 35.75 257.808 35.8138 257.658 35.8776C257.507 35.8776 257.056 35.8138 256.754 35.6225L256.152 35.6862C255.851 35.75 255.249 35.75 255.099 35.6862C254.497 35.6225 254.346 36.0052 253.895 35.9414L253.443 35.8776C252.841 35.8776 252.088 35.8138 251.787 35.75L251.637 35.8138L251.035 36.0052C250.282 35.8776 249.68 35.8138 249.529 35.8776C249.379 35.9414 248.927 36.0052 248.777 35.9414C248.626 35.8776 248.175 35.6862 248.175 35.6862C248.175 35.6862 247.723 35.75 247.422 35.8138C247.121 35.8776 245.465 35.8776 245.014 35.8776C244.562 35.8776 243.207 35.8776 242.756 35.8138C242.304 35.75 241.401 35.9414 241.1 35.8776L240.197 36.3241C238.842 36.1965 237.638 36.0052 237.337 36.0052C237.036 36.0052 236.434 36.0689 236.434 35.9414C236.434 35.8138 235.23 36.0689 234.929 36.1327C234.628 36.1965 234.026 36.1327 233.724 36.1327C233.574 36.1327 232.972 36.1965 232.821 36.1327C232.821 36.0689 232.52 36.0052 232.37 36.0052C232.219 36.0689 231.617 36.1965 231.015 36.1965L230.563 36.1327L229.209 35.9414L228.908 36.0052C228.456 36.1327 228.155 36.1327 228.005 36.1327C228.005 36.0689 227.403 35.9414 227.101 35.8776L226.349 36.1327L226.198 36.1327C226.048 36.1327 225.747 36.0689 225.596 36.0689C225.446 36.0052 224.242 36.0689 223.489 36.1327L223.188 36.2603C222.887 36.1965 222.586 36.0052 222.736 35.8138L221.833 36.0052L221.231 36.1327C221.231 35.9414 221.231 35.8776 221.231 36.0052C221.231 36.1327 220.177 35.9414 220.177 35.9414C220.177 35.9414 219.726 36.0052 219.274 36.0052C218.973 36.0052 217.619 35.8776 217.167 35.8138C216.715 35.75 215.963 35.9414 215.812 35.9414C215.662 35.8776 215.361 35.75 215.21 35.75C215.21 35.75 215.06 35.8138 214.909 35.8776C214.759 35.9414 214.006 36.0052 213.705 35.9414L213.404 35.9414C213.253 35.9414 212.952 36.0052 212.952 36.0052L212.501 35.8776C212.049 35.9414 211.146 35.9414 210.544 35.8776L209.942 35.8138L209.791 35.8138C209.49 35.8138 209.189 35.8776 209.039 35.8776C208.888 35.9414 208.286 35.9414 207.985 36.0052C207.835 36.0689 206.48 35.9414 205.878 35.9414L205.276 35.9414L204.824 35.9414C204.222 35.8776 203.77 35.8776 203.62 35.8776C203.469 35.9414 202.867 36.0052 202.416 36.0052L202.115 35.9414C201.814 35.8776 201.513 35.6862 201.513 36.0052C201.513 36.0052 201.212 36.0052 201.061 36.0052C200.308 36.0052 199.405 35.8776 198.653 35.9414L198.051 36.0052C197.599 35.9414 197.147 35.8776 196.997 35.8776C196.846 35.8776 196.244 35.9414 195.943 35.9414C195.642 36.0052 193.685 35.9414 193.083 35.8776C192.481 35.8138 190.976 36.1327 190.675 36.1327C190.374 36.1327 189.019 36.1965 188.568 36.2603C188.116 36.3241 187.062 36.0052 187.062 36.0052C186.912 36.0052 186.31 36.1965 186.009 36.0689L185.708 36.0689C185.407 36.0689 184.955 36.1965 184.654 36.1327L184.052 36.0689C183.751 36.1965 183.299 36.2603 183.149 36.2603L182.998 36.1965L182.697 36.1327C182.396 36.0689 182.095 36.0052 181.945 36.0689C181.794 36.1327 181.493 36.1965 181.342 36.1327C181.342 36.0689 180.439 36.0689 180.289 36.1327C180.138 36.1965 179.536 36.2603 179.386 36.1965C179.235 36.1327 178.784 35.9414 178.784 35.9414C178.332 36.2603 177.73 36.0052 177.128 36.0052L176.827 36.0052C176.375 36.0689 176.074 36.0689 175.773 36.0689C175.623 36.0689 175.171 36.0689 174.87 36.0052C174.569 35.9414 173.214 36.0689 172.763 36.0689L172.161 36.1327C171.86 36.1327 171.408 36.0052 171.107 36.0689L170.505 36.1327C169.903 36.0689 169.15 36.0689 168.699 36.0052L168.247 36.0052L167.494 36.0689C166.591 36.0689 165.839 36.1327 165.688 36.1327C165.538 36.1327 165.086 36.0052 164.935 35.9414C164.785 35.8776 163.731 36.0052 163.581 35.9414C163.43 35.8776 162.979 35.8138 162.828 35.8138C162.828 35.8776 163.129 36.0689 163.129 36.0689L162.678 36.1327C162.527 36.0052 162.377 35.8776 162.226 35.8138C162.076 35.8138 161.775 35.8776 161.624 35.8776C161.473 35.9414 161.022 36.0052 160.871 35.9414C160.721 35.8776 160.269 35.9414 160.269 36.1327L159.517 36.0052C159.667 35.8776 159.366 35.8138 158.764 35.8776C158.312 35.9414 156.958 35.6862 156.958 35.6862L156.958 35.75L156.958 36.0052C156.506 35.9414 156.055 35.8776 155.904 35.8138C155.754 35.75 155.453 35.6862 155.302 35.75C155.302 35.8138 154.85 35.9414 154.549 35.8776C154.248 35.8138 152.894 35.9414 152.593 35.9414C152.292 35.9414 151.238 35.75 151.238 35.6862C151.238 35.6224 150.184 35.75 150.034 35.8138C149.883 35.8776 149.131 35.9414 148.98 35.6862L148.227 35.75C147.475 35.8138 148.679 36.0052 148.077 36.0052L147.475 36.0052C146.873 36.0052 145.368 36.0052 144.163 36.0052L143.11 36.0052C142.508 36.0052 142.056 36.0052 141.454 36.0052L141.002 36.0052C140.551 35.9414 139.798 36.0689 139.347 36.1965L138.895 35.9414L138.594 35.8138C138.594 35.9414 138.293 36.1327 137.992 36.1965L137.691 36.0689L137.39 35.8776C136.938 35.9414 136.336 36.0052 135.885 36.0052C135.584 36.0052 134.379 36.1327 134.078 36.1965C133.777 36.2603 132.724 36.0689 132.423 36.0689C132.122 36.0689 131.068 36.0052 130.767 36.0052C130.616 36.0689 129.864 36.1327 129.412 36.1965L129.111 36.2603L128.358 36.3879C128.057 36.1965 127.756 36.1327 127.756 36.1965C127.756 36.2603 127.305 36.4516 126.853 36.3879C126.402 36.3241 125.047 36.1965 124.746 36.1965C124.294 36.1965 122.94 36.4516 122.187 36.4516L121.585 36.4516C120.983 36.4516 120.381 36.5154 119.628 36.4516L119.177 36.4516C118.875 36.5154 118.273 36.5792 117.822 36.5154L117.671 36.5792C117.069 36.7068 116.919 36.643 116.768 36.4516C116.467 36.4516 115.564 36.5792 114.962 36.7706L114.059 36.5154L113.908 36.5154C113.758 36.5154 113.758 36.5792 113.758 36.643C113.758 36.7706 112.553 36.643 112.252 36.5792C111.951 36.5154 110.898 36.5792 110.597 36.5792C110.296 36.5792 109.393 36.7068 109.091 36.7068C108.79 36.7068 107.887 36.8344 107.436 36.7706C106.834 36.7706 105.328 36.7706 105.027 36.7706C104.877 36.7068 104.275 36.5792 104.275 36.643C104.275 36.7068 103.974 36.7706 103.823 36.643L103.673 36.643L103.372 36.5792C103.071 36.5792 102.167 36.643 101.565 36.643L101.264 36.7068L100.813 36.8344C100.512 36.7706 100.06 36.7068 99.9096 36.7068C99.7591 36.7068 99.3075 36.7706 99.157 36.8344C99.0064 36.8344 98.1033 36.7706 97.6517 36.7068C97.2002 36.643 95.8455 36.8344 95.6949 36.8344C95.5444 36.8344 94.9423 36.5792 94.9423 36.643C94.9423 36.7068 94.4908 36.8981 94.0392 36.8981L93.7382 36.8981L93.2866 36.8981C92.835 36.8344 92.0824 36.7706 91.6308 36.7706C91.3298 36.7706 90.1256 36.9619 89.8246 36.9619C89.5235 36.9619 88.7709 36.8981 88.7709 36.9619C88.7709 37.0257 88.4699 37.2171 88.4699 37.2171C88.0183 37.0257 87.5667 36.8344 86.8141 37.0895L86.5131 37.1533C86.0615 37.0895 85.4594 37.0895 85.3089 37.0895C85.1584 37.0895 84.4057 37.0257 84.2552 37.0257L84.1047 37.0257L83.6531 37.0895C83.051 37.1533 82.2984 37.1533 81.8468 37.1533L81.3953 37.1533L81.0942 37.1533C80.6427 37.2808 80.1911 37.3446 80.0406 37.2808C79.89 37.2171 79.4385 37.0895 79.288 37.1533C79.1374 37.2171 78.2343 37.3446 78.0838 37.2808C77.9333 37.2171 77.1806 37.0895 76.428 37.0895L75.9765 37.0257L75.5249 36.9619C75.2238 37.0257 74.6218 37.0895 74.1702 37.0895L73.8691 37.1533L73.7186 37.1533C73.4176 37.1533 72.6649 37.2171 71.9124 37.2808L71.1597 37.0895L70.7082 36.9619C69.9555 36.9619 69.3534 37.0895 69.3534 37.2171C69.3534 37.3446 68.4503 37.2808 68.1493 37.2171C67.9987 37.1533 67.0956 37.1533 66.7946 37.1533C66.4935 37.1533 65.7409 37.2808 65.7409 37.2808C65.7409 37.2808 65.4398 37.2171 65.2893 37.1533C65.1388 37.0895 63.9346 37.0257 64.0851 37.0895C64.2357 37.1533 64.2357 37.2171 63.6336 37.1533L63.0315 37.3446C62.7304 37.4084 61.9778 37.3446 61.5262 37.3446L61.0747 37.3446C60.7736 37.2171 60.4726 37.1533 60.3221 37.1533C60.1715 37.1533 59.4189 37.1533 58.6663 37.0895L58.2148 37.3446L58.0642 37.4084C57.3116 37.2808 56.86 37.2808 56.86 37.3446C57.0106 37.4084 57.0106 37.5998 57.0106 37.5998C57.0106 37.5998 56.4085 37.6635 55.9569 37.6635C55.5053 37.6635 54.1506 37.536 54.0001 37.536L53.8496 37.536L53.398 37.4722C52.7959 37.4722 52.1938 37.4722 51.8928 37.4084C51.5917 37.3446 50.6886 37.6635 50.0865 37.8549L49.4844 37.7911L48.7318 37.6635C48.2802 37.7911 47.9792 37.9187 47.8287 37.9187C47.8287 37.9187 47.5276 37.9187 47.3771 37.9825C47.2266 38.0463 46.474 37.9187 46.1729 37.8549C46.0224 37.7911 45.1192 37.7273 45.2698 37.8549C45.4203 37.9825 44.5172 37.8549 44.3666 37.9187C44.2161 37.9187 43.4635 37.9187 43.313 37.8549C43.0119 37.7911 42.1088 37.7911 42.1088 37.7911C42.1088 37.8549 41.3562 37.9187 40.0015 37.9187L39.5499 37.7911L38.6468 37.536C38.4962 37.7911 38.1952 37.8549 37.7436 37.7273L36.991 37.8549C36.0879 37.9825 35.0342 37.9187 34.1311 37.7273C33.83 37.6635 33.2279 37.536 32.6259 37.6635C32.3248 37.7273 31.5722 37.5998 31.1206 37.4722C30.8196 37.4084 31.7227 37.3446 31.1206 37.2808C30.9701 37.2808 30.6691 37.4084 30.5186 37.3446C30.2175 37.3446 29.6154 37.2808 29.6154 37.2171L29.3144 36.9619C28.5617 36.8981 27.6586 36.7706 27.207 36.7068C26.7555 36.643 25.2502 36.5792 25.0997 36.5792C24.7987 36.5792 24.0461 36.5154 23.745 36.5154C23.5945 36.5154 23.1429 36.5792 23.1429 36.4516C23.1429 36.3241 22.2398 36.5154 22.0893 36.5154C21.9387 36.5154 21.1861 36.5154 20.7346 36.5154C20.1325 36.5154 18.7777 36.2603 18.6272 36.2603C18.4767 36.2603 18.0251 36.2603 18.0251 36.1965C18.0251 36.1327 17.5736 35.9414 16.9715 36.0051C16.3694 36.0689 14.7136 35.8138 14.1115 35.75L13.961 35.4311C13.8105 35.3035 12.9073 35.2397 12.7568 34.9846L12.6063 34.857C12.0042 34.7295 11.4021 34.6657 11.2516 34.6657C11.1011 34.6657 10.9506 34.5381 11.1011 34.4105L10.499 34.3467C10.6495 34.2192 10.8 33.964 10.8 33.8365L10.8 33.7089L10.6495 33.4538C10.499 33.1348 10.1979 32.8797 10.0474 32.8797L9.89688 32.8797L9.74637 32.8797C9.59586 32.8797 9.44534 32.8797 9.44534 32.8159C9.44534 32.7521 9.74637 32.6883 10.0474 32.6246L10.3485 32.5608C10.3485 32.5608 10.3485 32.497 10.3485 32.4332C10.3485 32.4332 10.1979 32.4332 10.0474 32.4332L9.89688 32.497L9.59586 32.497C9.2948 32.497 8.99378 32.497 8.99378 32.4332C8.99378 32.3694 8.69269 32.1781 8.39166 32.0505L8.09061 31.9229L7.94009 31.8591C7.94009 31.6678 8.24115 31.604 8.69272 31.6678C9.14429 31.7316 10.1979 31.6678 9.89688 31.3489C9.44531 30.9662 9.44534 30.0094 9.74637 30.0094C10.1979 29.9456 11.1011 29.818 10.9506 29.818C10.8 29.818 10.3485 29.6905 10.0474 29.5629L9.89688 29.4353C9.44531 29.1164 9.2948 29.6267 8.84323 29.4353L8.69272 29.3715C8.24115 29.3078 7.9401 29.1802 8.09061 29.0526C8.24115 28.9251 7.78955 28.4148 7.63904 28.1596L7.9401 27.9045C8.24115 27.6494 7.63904 27.2029 6.88641 27.2029L6.28433 27.2029C5.53174 27.1391 5.23068 27.0753 5.53174 27.0753C5.83276 27.0753 6.88641 26.9477 6.88641 26.8839C6.88641 26.8202 6.58539 26.5012 6.13382 26.565L5.68225 26.565L5.3812 26.565C5.08014 26.565 4.77912 26.565 4.47809 26.5012C4.17703 26.5012 2.97284 26.5012 2.52127 26.5012C1.91919 26.5012 1.31708 25.991 1.31708 25.9272L1.61813 25.9272C2.22022 25.991 2.52127 25.7996 2.37073 25.6083C2.22022 25.4807 2.0697 25.3531 1.76865 25.2893L1.16657 25.1618C1.16657 24.9066 1.01602 24.7791 0.865511 24.8428L0.714998 24.8428C0.564485 24.8428 0.263429 24.8428 0.112886 24.7791C-0.0376266 24.7153 -0.0376266 24.6515 0.112886 24.5877C0.413942 24.4601 0.714998 24.3326 1.31708 24.3963C1.46762 24.3963 1.61814 24.3326 1.61814 24.2688C1.61814 24.205 1.46762 24.1412 1.31708 24.1412L0.865511 24.0774C0.413942 24.0136 0.413942 23.8861 0.865511 23.7585L1.31708 23.7585L1.76865 23.7585C2.37076 23.8861 2.82233 23.8223 2.82233 23.6309L2.97284 23.5034L3.12335 23.312C3.57492 23.2482 4.32755 23.1844 4.62857 23.1844C4.92963 23.1844 4.92963 22.8017 4.62857 22.5466C4.47806 22.3552 4.02649 21.6536 4.32755 21.5898C4.6286 21.526 4.32755 21.1433 4.17703 21.0795C4.02652 21.0158 3.72544 20.7606 3.87598 20.7606L4.17703 20.6968C4.47809 20.6331 4.77912 20.8882 5.08017 20.6968C5.3812 20.6968 5.83277 20.7606 6.13382 20.8244C6.43485 20.8882 7.78958 20.7606 8.24115 20.7606C8.84323 20.6968 10.499 20.8882 10.9506 21.0158C11.4021 21.0795 13.0579 21.0158 13.3589 21.0795C13.66 21.0795 14.5631 21.2709 14.7136 21.2071C14.8642 21.1433 15.0147 20.8882 15.0147 20.7606C15.0147 20.6331 13.961 20.5693 13.66 20.5693L13.5095 20.5055C13.2084 20.4417 13.5095 20.1866 12.7568 20.2503L12.6063 20.2503C12.4558 20.1228 12.0042 20.059 11.7032 20.1866L11.7032 19.8676L11.7032 19.8039C11.2516 19.7401 10.6495 19.7401 10.1979 19.7401L10.0474 19.5487L10.0474 19.4211C9.89688 19.2298 10.0474 19.166 10.1979 19.2298C10.3485 19.2936 11.2516 19.2936 11.4021 19.2936C11.5526 19.2298 12.1548 19.166 12.4558 19.2936C12.7568 19.3574 13.66 19.6763 13.66 19.6125C13.5094 19.4211 13.0579 19.2298 13.0579 19.0384L13.2084 18.8471C13.8105 18.5919 14.1115 18.4006 13.8105 18.3368C13.66 18.273 12.9074 18.273 12.6063 18.4006L12.4558 18.5282L12.3053 18.5919C12.3053 18.7195 12.1547 18.7833 12.1547 18.7833L11.7032 18.5919C11.2516 18.7195 10.6495 18.7833 10.499 18.7195C10.3485 18.7195 10.3485 18.5282 10.9506 18.3368L10.6495 18.0817L10.499 18.0179C10.0474 18.0817 9.59586 17.9541 9.44535 17.699C9.2948 17.5076 8.99378 17.2525 8.99378 17.2525C9.14429 17.1887 9.59583 17.1887 9.89688 17.3163L10.1979 17.38C10.3485 17.38 10.6495 17.3163 10.6495 17.2525C10.8 17.1887 10.8 16.9973 10.6495 16.9335C10.3485 16.9335 9.59586 16.806 9.74637 16.7422C10.0474 16.6784 10.6495 16.4233 10.499 16.3595C10.3485 16.2957 10.0474 16.1043 9.89688 16.1681L9.74637 16.1681C9.2948 16.2319 8.84323 16.0406 8.39167 15.7216L8.24115 15.5941C8.54221 15.4665 8.69272 15.3389 8.84323 15.2751C8.99375 15.2751 8.99378 15.1476 8.69272 15.0838L8.54218 15.0838C7.9401 15.0838 7.78958 15.02 8.09061 14.8287C8.09061 14.7649 8.24115 14.7011 8.24115 14.7011L7.9401 14.6373C8.09064 14.5097 8.39167 14.4459 8.69272 14.5097L8.84323 14.6373L8.84323 14.7011C9.59586 14.7011 9.59586 14.6373 8.84323 14.5097L9.14426 14.2546L9.2948 14.127C9.44532 13.9357 9.44532 13.8081 9.2948 13.7443C9.14429 13.6805 8.84323 13.4254 8.99378 13.2978C9.14429 13.1703 10.1979 13.0427 10.1979 12.9789L10.0474 12.9151L9.89688 12.7875C9.74637 12.5962 9.74637 12.5324 9.89688 12.5962C10.0474 12.66 10.8001 12.7238 10.9506 12.66C11.1011 12.5962 11.8537 12.66 12.1547 12.66C12.4558 12.66 13.0579 12.5962 12.9074 12.5962C12.7568 12.5324 12.3053 12.4048 12.1547 12.3411C12.0042 12.2773 11.2516 12.4048 11.2516 12.4048C11.2516 12.4048 11.1011 12.3411 11.1011 12.2135C11.1011 12.0859 10.0474 12.2135 9.89688 12.2135C9.74637 12.2135 9.44535 12.1497 9.74637 12.0859C10.0474 12.0221 10.9506 11.8946 11.1011 11.9583C11.1011 12.0221 11.5526 12.0859 11.7032 12.0859C11.8537 12.0859 12.3053 11.767 12.4558 11.767C12.6063 11.767 13.2084 11.6394 13.3589 11.4481L13.2084 11.2567C13.0579 11.0654 12.7568 11.0016 12.3053 10.9378L12.1547 10.9378C12.0042 10.874 12.0042 10.7464 12.3053 10.6827C12.6063 10.6189 13.3589 10.3637 13.5095 10.2999C13.66 10.2362 13.66 10.0448 13.66 10.0448C13.8105 10.0448 13.961 9.91724 13.961 9.91724C13.961 9.91724 13.961 9.78967 13.66 9.72589C13.5094 9.6621 13.0579 9.34318 13.0579 9.15183L13.3589 9.02426C13.961 8.76912 13.8105 8.57776 12.9074 8.45019L12.1547 8.32262C12.6063 8.13127 13.0579 7.87613 13.3589 7.74856C13.5094 7.621 14.1115 7.49342 13.66 7.49342L13.66 7.23829L13.66 7.11072C13.66 6.98315 13.5095 6.72801 13.5095 6.60044L13.2084 6.53666L12.9074 6.40909C13.0579 6.28152 13.2084 6.02638 13.3589 5.89881L13.0579 5.77124L12.3053 5.38853C12.9074 5.19718 13.5095 5.06961 13.5095 5.06961C13.5095 5.06961 13.0579 4.6869 12.3053 4.30419L11.7032 3.92149L11.5526 3.79392C11.8537 3.8577 12.1547 3.8577 12.3053 3.8577C12.3053 3.8577 12.6063 3.8577 12.9074 3.79392C13.0579 3.73013 13.8105 3.60256 13.961 3.60256C14.1115 3.60256 14.8641 3.53878 15.1652 3.47499L15.4663 3.41121L15.9178 3.34743C16.3694 3.34743 17.5736 3.28364 18.4767 3.21986C19.3799 3.09229 22.5408 3.0285 23.1429 2.96472L23.5945 2.96472L24.0461 2.96472C24.6481 2.90094 25.8523 2.83715 27.0565 2.83715L28.1102 2.83715L28.5617 2.83715C29.0133 2.77336 29.7659 2.58201 30.2175 2.45444L30.6691 2.70958C30.6691 2.77336 31.5722 2.6458 31.5722 2.6458C31.8732 2.90094 32.3248 2.45444 32.6259 2.70958L32.7764 2.77336C33.3785 2.6458 33.9806 2.58201 34.2816 2.58201L34.7332 2.45444C35.3353 2.45444 36.0879 2.45444 36.3889 2.39066C36.69 2.32687 37.7436 2.45445 37.8942 2.45445C38.1952 2.45445 39.3994 2.39066 40.0015 2.39066C40.6036 2.39066 42.4099 2.1993 42.5604 2.26309C42.7109 2.32687 43.7646 2.13552 44.3666 2.07174L44.8182 2.13552L45.4203 2.1993C46.1729 2.13552 46.9255 2.13552 47.3771 2.07174C47.8287 2.07174 48.7318 1.94417 48.7318 2.00795C48.7318 2.07174 49.4844 2.00795 49.936 1.88038C50.3876 1.75281 51.8928 1.94417 52.1939 1.88038L52.3444 1.88038L52.9464 2.00795C53.398 1.88038 54.3012 1.8166 54.9033 1.88038L55.3548 1.8166L55.8064 1.75281C56.2579 1.8166 57.1611 1.88038 57.7632 1.8166L58.3653 1.8166L58.8168 1.8166C59.4189 1.75281 60.1716 1.75281 60.6231 1.88038L61.2252 1.75281L61.6768 1.68903C62.2789 1.68903 63.4831 1.68903 64.2357 1.62524L65.1388 1.68903L65.7409 1.75281C66.4935 1.68903 67.2461 1.56146 67.5472 1.56146C67.8482 1.56146 68.6008 1.62524 68.7513 1.62524C68.9019 1.56146 69.805 1.62524 70.2566 1.62524C70.7082 1.62524 72.0629 1.49768 72.2134 1.56146C72.2134 1.62525 72.3639 1.62525 72.3639 1.49768C72.3639 1.37011 73.4176 1.62524 73.5681 1.62524C73.7186 1.62524 74.7723 1.62525 75.2239 1.56146C75.6754 1.56146 76.8796 1.62525 77.1806 1.56146C77.4817 1.56146 78.6859 1.62524 79.1374 1.62524C79.589 1.62524 81.0942 1.62524 81.5458 1.62524C81.9974 1.68903 83.2015 1.43389 83.3521 1.43389C83.5026 1.43389 84.2552 1.49768 84.4057 1.49768C84.7068 1.49768 85.3089 1.49768 85.911 1.49768C86.5131 1.49768 88.0183 1.56146 88.1688 1.56146C88.3193 1.56146 88.7709 1.49768 88.9214 1.56146C89.0719 1.62525 90.2762 1.56146 90.7277 1.56146C91.1793 1.56146 92.6845 1.49768 93.2866 1.37011L94.0392 1.56146L94.4908 1.68903C95.3939 1.68903 96.5981 1.62525 97.3507 1.56146L98.1033 1.68903L98.2538 1.68903C98.5549 1.56146 99.157 1.49768 99.6086 1.62524C100.06 1.75282 101.866 1.56146 102.77 1.49768C103.673 1.4339 105.931 1.68903 106.081 1.68903C106.232 1.68903 106.984 1.62525 107.887 1.62525L108.64 1.75282L109.091 1.8166C109.393 1.62525 109.844 1.56146 110.145 1.62525C110.446 1.68903 111.349 1.8166 111.65 1.75282C111.801 1.68903 112.704 1.49768 112.855 1.56146C113.005 1.62525 113.908 1.75282 114.661 1.75282L115.112 1.68903C115.715 1.62525 116.166 1.62525 116.618 1.68903L117.069 1.8166C117.521 1.75282 117.972 1.68903 118.123 1.68903C118.273 1.75282 119.177 1.8166 119.327 1.8166C119.478 1.8166 120.381 1.75282 120.531 1.68903C120.832 1.62525 121.735 1.68903 121.886 1.68903C122.187 1.68903 123.09 1.68903 123.391 1.68903C123.692 1.68903 124.445 1.75282 124.445 1.8166C124.445 1.88039 124.595 2.07174 124.746 2.07174C124.896 2.07174 125.197 2.00796 125.197 2.07174C125.197 2.13552 125.8 2.19931 125.95 2.13553L126.101 2.00796C126.251 1.94417 126.703 1.88039 127.004 1.8166C127.907 1.62525 127.907 1.62525 128.81 1.88039L128.961 1.94417C129.111 2.00796 129.563 1.94417 129.713 1.88039C129.864 1.8166 130.767 1.68904 131.068 1.8166C131.369 1.88039 132.122 2.07174 132.122 2.00796C132.122 1.94417 132.573 1.68903 133.025 1.68903C133.476 1.68903 135.433 1.75282 136.788 1.62525L138.142 1.8166L139.497 1.56147C140.25 1.43389 140.852 1.37011 141.002 1.43389C141.153 1.49768 141.755 1.37011 141.906 1.37011C141.906 1.37011 142.658 1.30633 143.26 1.37011C143.862 1.37011 145.669 1.49768 145.819 1.49768C146.12 1.49768 146.873 1.37011 147.174 1.30633C147.475 1.24254 148.83 1.24254 149.432 1.11497L150.184 1.37011L150.636 1.49768C151.087 1.4339 151.689 1.4339 151.991 1.49768C152.292 1.56147 153.195 1.30633 153.496 1.30633C153.797 1.30633 154.7 1.4339 154.7 1.49768C154.7 1.56147 155.152 1.68903 155.603 1.56147L155.904 1.4339L156.205 1.30633C156.657 1.37011 157.108 1.37011 157.259 1.37011C157.409 1.30633 158.011 1.30633 158.011 1.37011C158.011 1.4339 158.162 1.49768 158.312 1.24254L158.915 1.37011L159.216 1.4339C159.517 1.37011 159.968 1.37011 160.119 1.37011C160.269 1.37011 161.172 1.49768 161.323 1.4339C161.624 1.4339 162.527 1.4339 162.828 1.49768C163.129 1.56147 164.032 1.49768 164.484 1.56147L164.935 1.56147C165.086 1.56147 165.387 1.49768 165.538 1.49768C165.839 1.62525 165.989 1.49768 166.29 1.49768C166.441 1.49768 166.742 1.56147 166.892 1.62525C166.892 1.62525 167.193 1.56147 167.193 1.49768L167.193 1.4339C167.043 1.37011 167.043 1.37011 167.043 1.30633C167.043 1.30633 167.344 1.30633 167.645 1.30633C167.795 1.30633 168.699 1.30633 169 1.24254L169.301 1.24254C169.903 1.24254 170.505 1.37011 170.806 1.30633L171.408 1.17876C171.86 1.24254 172.462 1.30633 172.612 1.30633C172.913 1.30633 173.666 1.17876 173.816 1.11497C173.967 1.05119 174.268 1.30633 174.268 1.37011C174.268 1.37011 174.87 1.37011 175.322 1.37011C175.924 1.37012 177.73 1.24254 178.182 1.24254C178.633 1.24254 179.687 1.62525 179.837 1.56147C179.988 1.49768 180.289 1.24254 181.041 1.17876C181.644 1.17876 184.052 1.4339 185.106 1.56147L186.009 1.24254L186.31 1.17876C186.912 1.24254 187.514 1.30633 187.664 1.30633C187.815 1.37011 188.417 1.30633 188.718 1.30633C189.019 1.37011 189.922 1.24254 190.073 1.17876C190.223 1.17876 190.976 1.17876 191.578 1.24254C192.03 1.24254 194.137 1.17876 195.04 1.11497L195.793 1.30633C195.793 1.30633 197.599 1.11497 197.75 1.11497C197.9 1.05119 197.9 1.05119 198.051 1.05119L198.502 0.987407C198.954 1.05119 199.255 1.17876 199.255 1.24255C199.255 1.30633 199.405 1.49768 199.556 1.49768C199.706 1.49768 200.158 1.4339 200.007 1.37012L200.007 1.30633L200.007 1.24255C200.007 1.11498 200.459 1.05119 200.91 1.05119L201.362 1.05119L201.663 1.05119C201.964 0.987407 202.717 0.987407 203.168 0.987407C203.62 0.987407 205.125 1.05119 205.426 1.05119C205.727 1.05119 206.63 1.11498 206.931 1.05119C207.232 0.987408 208.136 1.11498 208.286 1.05119L208.437 1.05119C209.189 0.987408 209.791 1.05119 210.544 1.11498L211.146 1.17876C212.049 1.17876 212.952 1.17876 213.253 1.17876C213.554 1.17876 213.855 1.4339 214.156 1.24255L214.307 1.17876L214.458 1.11498C214.608 1.05119 215.06 0.987408 215.511 0.923623C215.963 0.859841 217.468 1.11498 217.769 1.11498C218.07 1.11498 218.522 1.11498 218.672 1.11498C218.823 1.11498 219.575 1.11498 219.726 1.11498C219.876 1.11498 220.93 1.11498 221.382 1.11498C221.833 1.11498 223.037 1.24255 223.037 1.30633C223.037 1.37011 223.338 1.24255 223.639 1.05119L224.392 1.24255C224.543 1.30633 225.145 1.05119 225.596 1.05119L226.048 1.05119C226.499 1.11498 227.252 1.05119 227.704 0.859842L228.306 1.05119L228.607 1.17877C229.209 1.24255 229.811 1.30633 229.961 1.24255C230.112 1.17876 230.563 0.987409 230.714 1.11498C230.865 1.17876 231.467 1.30633 231.768 1.17877L232.069 1.11498C232.219 1.11498 232.671 1.11498 232.671 1.11498L232.671 1.4339C233.423 1.49769 234.176 1.49769 234.176 1.4339C234.176 1.30633 234.628 1.17877 235.079 1.17877L235.38 1.11498C235.681 1.11498 235.832 0.987409 235.832 1.17877C235.832 1.37012 236.283 1.37012 236.434 1.30633C237.187 1.11498 237.939 1.24255 238.692 1.17877L239.294 1.17877C239.896 1.11498 240.498 1.11498 240.498 1.11498L240.649 1.11498L241.251 1.17877C242.154 1.24255 242.605 1.30633 242.304 1.37012C242.003 1.4339 242.605 1.62526 242.605 1.68904C242.605 1.75283 243.057 1.81661 243.057 1.68904C243.057 1.56147 243.358 1.17876 243.659 1.24255L243.81 1.30633L243.96 1.37012C244.111 1.49769 244.713 1.56147 245.014 1.49769C245.465 1.43391 246.519 1.37012 246.669 1.4339C246.82 1.56147 247.422 1.75283 247.723 1.62525L247.723 1.49769L247.723 1.17877C248.175 1.17877 249.078 1.17876 249.529 1.24255C249.981 1.30633 251.486 1.24255 251.637 1.24255C251.787 1.24255 252.239 1.30633 252.54 1.37012C252.841 1.4339 254.045 1.37012 254.497 1.30633L254.798 1.37012L255.099 1.4339C255.4 1.62525 255.851 1.75283 256.152 1.68904C256.453 1.62526 257.206 1.4339 257.206 1.37012L257.206 1.30633L257.206 1.24255C257.206 1.17876 257.357 1.17877 257.507 1.17877C257.658 1.17877 257.959 1.30633 258.26 1.4339C258.41 1.49769 259.464 1.30633 259.614 1.30633C259.765 1.30633 260.367 1.37012 260.668 1.37012L260.668 1.4339L260.819 1.62526C260.367 1.62526 259.765 1.62526 259.464 1.62526C259.163 1.62526 259.012 2.00796 259.313 2.00796C259.614 2.00796 260.668 2.00796 260.668 1.8804L260.819 1.75283C260.969 1.62526 261.27 1.4339 261.571 1.4339C262.324 1.4339 261.722 1.68904 262.023 1.81661C262.173 1.81661 262.474 1.75283 262.775 1.56147C263.076 1.4339 264.732 1.4339 265.184 1.4339C265.635 1.4339 266.237 1.75283 266.388 1.62526C266.538 1.49769 265.485 1.37012 265.334 1.37012C265.334 1.37012 265.184 1.24255 265.334 1.17877L265.485 1.17877L265.786 1.17877C266.087 1.24255 266.689 1.37012 267.141 1.56147L267.291 2.13554C267.291 2.19932 267.893 2.32689 267.893 2.32689C269.248 1.94418 268.796 2.39067 268.947 2.58203C269.097 2.64581 269.248 2.58203 269.248 2.39067C269.248 2.2631 269.549 2.00797 269.85 2.13554C270.151 2.2631 270.603 1.75283 270.753 1.68904C270.904 1.62526 271.355 1.30634 271.506 1.30634C271.656 1.30634 272.71 1.30634 273.463 1.30634L274.215 1.30634L274.366 1.30634C274.516 1.30634 274.667 1.30634 274.667 1.37012C274.667 1.4339 274.667 1.56147 274.667 1.62526C274.667 1.68904 274.065 1.94418 273.764 1.8804L273.463 1.8804L273.161 1.8804C273.011 1.81661 272.559 1.75283 272.108 1.68904L271.807 1.68904C271.656 1.68904 271.355 1.68904 271.355 1.75283L271.205 1.8804C271.054 2.07175 270.603 2.19932 270.302 2.19932L270.151 2.2631C269.85 2.39067 269.85 2.58203 269.699 2.64581L269.097 2.83717C269.398 2.96473 269.85 3.0923 270 3.15609C270.151 3.15609 270.753 3.0923 270.753 2.90095C270.753 2.70959 271.205 2.19932 271.656 2.19932L271.957 2.07175C272.258 1.88039 272.559 1.8804 273.161 2.00797L273.613 1.94418ZM268.796 3.41123C269.097 3.47501 269.549 3.47501 269.549 3.47501C269.549 3.47501 269.549 3.34744 269.248 3.28366C269.097 3.21988 267.893 3.15609 267.291 3.28366L266.689 3.0923C266.689 3.0923 266.388 3.0923 266.388 3.15609L266.237 3.21987C265.936 3.34744 265.936 3.47501 266.388 3.47501C266.689 3.47501 268.345 3.34744 268.796 3.41123ZM279.634 3.0923C280.086 3.02852 280.387 2.90095 280.236 2.77338C280.086 2.64581 279.032 2.90095 278.881 2.96474C278.731 3.02852 277.527 3.02852 277.226 3.02852C276.774 3.02852 275.72 3.0923 275.871 3.21987C276.021 3.34744 277.075 3.21987 277.376 3.21987C277.677 3.21987 278.43 3.21988 278.881 3.28366L279.333 3.21987L279.634 3.0923ZM17.122 20.8882C16.6704 20.8244 16.5199 20.8882 16.6704 21.0158C16.821 21.1433 17.5735 21.5898 17.8746 21.845L18.4767 21.526L18.9283 21.2709C19.3798 21.3347 19.5304 21.3985 19.2293 21.3347C18.9283 21.3347 17.5735 20.952 17.122 20.8882ZM191.879 3.02851C192.331 3.02851 192.933 2.96473 192.933 2.90094L192.782 2.77338C192.933 2.64581 192.933 2.51824 192.632 2.45446C192.481 2.39067 191.729 2.58202 191.277 2.58202C191.126 2.70959 191.428 3.02851 191.879 3.02851ZM10.6495 21.0795C10.9506 21.2709 11.1011 21.2709 10.9506 21.0795C10.8001 20.8882 9.59586 20.6968 9.2948 20.6968L9.2948 20.8882L9.2948 20.952C8.99375 21.1433 9.2948 21.1433 10.0474 20.952L10.3485 21.0158L10.6495 21.0795ZM283.096 3.28366C283.999 3.21988 284.451 3.15609 283.999 3.09231C283.548 3.02852 282.644 2.90095 282.494 2.83717C282.193 2.77338 281.44 2.7096 281.44 2.77338C281.44 2.83717 281.741 3.09231 282.193 3.02852L282.343 3.02852L283.096 3.28366ZM246.067 2.64581C246.218 2.64581 246.218 2.45445 245.917 2.19932L245.465 2.13553L245.014 2.00796C244.562 1.8804 243.96 1.81661 243.659 1.81661L243.508 1.8804L243.358 1.94418C243.358 2.07175 243.81 2.13553 244.412 2.13553L244.713 2.19932L245.014 2.2631C245.315 2.45445 245.917 2.64581 246.067 2.64581ZM123.993 2.6458C123.692 2.70959 123.692 2.77337 123.843 2.83716C123.993 2.90094 124.595 3.09229 124.746 3.15608C124.896 3.21986 125.499 3.15608 125.348 2.96473C125.197 2.90094 124.144 2.6458 123.993 2.6458ZM258.109 2.32689C258.26 2.51824 258.26 2.51824 258.109 2.32689C258.109 2.19932 258.26 1.81661 257.959 1.81661C257.658 1.81661 258.109 2.13554 258.109 2.32689ZM373.56 14.0633C373.259 14.0633 373.109 14.127 373.109 14.2546L373.259 14.2546C373.861 14.2546 374.012 14.3822 374.012 14.5735L374.012 14.6373C374.162 14.7649 374.313 14.7011 374.614 14.5735C374.915 14.446 373.861 14.127 373.56 14.0633ZM378.678 11.0016C378.678 11.0654 378.979 11.1292 379.13 11.193L379.28 11.2567C379.431 11.3205 379.581 11.3843 379.882 11.3205C380.183 11.2567 380.334 11.193 379.882 11.0654C379.581 11.0016 380.183 10.6827 379.431 10.6827C379.28 10.6827 378.979 10.874 378.678 11.0016Z" fill="#f55581"/>
</svg>
