<svg width="26" height="20" viewBox="0 0 26 20" fill="none" xmlns="http://www.w3.org/2000/svg">
<path d="M7.16766 11.7461L2.44667 6.68828L7.16766 1.63048C7.54915 1.22131 7.50465 0.599953 7.06746 0.242576C6.63027 -0.114471 5.96672 -0.0724963 5.58452 0.33635L0.259604 6.04135C-0.0865346 6.41185 -0.0865346 6.965 0.259604 7.33549L5.58457 13.0405C5.79264 13.2628 6.08379 13.377 6.37664 13.377C6.62188 13.377 6.86812 13.297 7.06746 13.134C7.5047 12.7766 7.5495 12.1553 7.16766 11.7461Z" fill="white"/>
<path d="M18.0768 5.70465H1.05097C0.470491 5.70465 0 6.14495 0 6.68827C0 7.23155 0.470491 7.67189 1.05097 7.67189H18.0768C21.1292 7.67189 23.6123 9.99585 23.6123 12.8523C23.6123 15.7088 21.1292 18.0328 18.0768 18.0328H2.4523C1.87182 18.0328 1.40133 18.4731 1.40133 19.0164C1.40133 19.5597 1.87182 20 2.4523 20H18.0768C22.2878 20 25.7143 16.7934 25.7143 12.8523C25.7143 8.91127 22.2881 5.70465 18.0768 5.70465Z" fill="white"/>
</svg>
