<svg width="17" height="17" viewBox="0 0 17 17" fill="none" xmlns="http://www.w3.org/2000/svg">
<path d="M16.7359 15.7943C16.7359 16.1476 16.4469 16.4366 16.0936 16.4366H0.941623C0.588354 16.4366 0.299316 16.1476 0.299316 15.7943C0.299316 15.441 0.588354 15.152 0.941623 15.152H16.0968C16.4501 15.152 16.7359 15.441 16.7359 15.7943ZM6.79946 12.8269C7.38717 13.4146 7.68584 13.7389 8.51763 13.7389C9.34941 13.7389 9.64808 13.4146 10.2358 12.8269L15.6793 7.37368C16.251 6.79881 16.4148 5.97666 16.1033 5.22516C15.7917 4.47688 15.0981 4.0112 14.2887 4.0112H13.6882C13.3349 4.0112 13.0459 3.72538 13.0459 3.37532V0.642306C13.0459 0.289038 12.7568 0 12.4036 0C12.0503 0 11.7613 0.289038 11.7613 0.642306V3.37853C11.7613 4.43834 12.6252 5.29903 13.6882 5.29903H14.2887C14.7095 5.29903 14.8765 5.62339 14.9182 5.72295C14.96 5.82251 15.0724 6.17256 14.7705 6.47124L9.32693 11.9212C8.98009 12.2648 9.00578 12.4575 8.51763 12.4575C8.02947 12.4575 8.05195 12.2681 7.70832 11.9212L2.26799 6.46802C1.96931 6.16935 2.08172 5.81929 2.12025 5.71974C2.162 5.62018 2.329 5.29582 2.74972 5.29582H3.31816C4.38117 5.29582 5.24508 4.43513 5.24508 3.37532V0.642306C5.24508 0.289038 4.95604 0 4.60277 0C4.2495 0 3.96046 0.289038 3.96046 0.642306V3.37853C3.96046 3.72859 3.67142 4.01441 3.31816 4.01441H2.74972C1.94041 4.01441 1.24351 4.48009 0.9352 5.22837C0.623681 5.97987 0.787469 6.80202 1.35912 7.37689L6.79946 12.8269Z" fill="white"/>
</svg>

