
<svg width="16" height="17" viewBox="0 0 16 17" fill="none" xmlns="http://www.w3.org/2000/svg">
<path d="M12.4695 10.2343C11.5111 10.2343 10.653 10.6715 10.0837 11.3568L6.3804 9.25421C6.49556 8.93013 6.55886 8.58167 6.55886 8.21853C6.55886 7.85546 6.49556 7.507 6.3804 7.18292L10.0834 5.0798C10.6527 5.76536 11.5108 6.20272 12.4693 6.20272C14.179 6.20272 15.5699 4.81128 15.5699 3.10089C15.5701 1.39101 14.1791 0 12.4695 0C10.7596 0 9.36852 1.39101 9.36852 3.10082C9.36852 3.46396 9.43174 3.81249 9.54698 4.13664L5.84372 6.23983C5.27448 5.55464 4.41654 5.11756 3.45833 5.11756C1.74823 5.11756 0.356934 6.50857 0.356934 8.21845C0.356934 9.92826 1.74823 11.3193 3.45833 11.3193C4.41654 11.3193 5.27441 10.8822 5.84364 10.1971L9.54698 12.2998C9.43174 12.6239 9.36844 12.9725 9.36844 13.3357C9.36844 15.0455 10.7595 16.4365 12.4694 16.4365C14.1791 16.4365 15.57 15.0455 15.57 13.3357C15.5701 11.6256 14.1791 10.2343 12.4695 10.2343ZM12.4695 1.08509C13.5808 1.08509 14.485 1.98933 14.485 3.10082C14.485 4.21289 13.5808 5.11756 12.4695 5.11756C11.3579 5.11756 10.4536 4.21289 10.4536 3.10082C10.4536 1.98933 11.3579 1.08509 12.4695 1.08509ZM3.4584 10.2343C2.34662 10.2343 1.44209 9.32995 1.44209 8.21853C1.44209 7.10696 2.34662 6.20272 3.4584 6.20272C4.56975 6.20272 5.47385 7.10696 5.47385 8.21853C5.47385 9.32995 4.56968 10.2343 3.4584 10.2343ZM12.4695 15.3515C11.3579 15.3515 10.4536 14.4472 10.4536 13.3358C10.4536 12.2239 11.3579 11.3193 12.4695 11.3193C13.5808 11.3193 14.485 12.2239 14.485 13.3358C14.485 14.4472 13.5808 15.3515 12.4695 15.3515Z" fill="white"/>
</svg>
